<svg width="325" height="195" viewBox="0 0 325 195" fill="none" xmlns="http://www.w3.org/2000/svg">
<rect width="324.326" height="195" rx="16" fill="#F5CB58"/>
<mask id="mask0_187_1622" style="mask-type:alpha" maskUnits="userSpaceOnUse" x="0" y="0" width="325" height="195">
<rect x="0.010376" width="324.326" height="194.814" rx="16" fill="#F5CB58"/>
</mask>
<g mask="url(#mask0_187_1622)">
<path d="M198.673 -4.38747L-14.8885 107.205L-4.10551 -134.782L198.673 -4.38747Z" fill="#E95322"/>
<path d="M331.715 80.9506L128.848 -49.3054L342.334 -161.044L331.715 80.9506Z" fill="#F3E9B5"/>
</g>
<path d="M33.8065 150.57C34.2985 150.57 34.7245 150.502 35.0845 150.366C35.4485 150.23 35.7065 150.098 35.8585 149.97L36.3085 150.852C36.1285 151.012 35.8145 151.174 35.3665 151.338C34.9225 151.502 34.3885 151.584 33.7645 151.584C33.1805 151.584 32.6385 151.48 32.1385 151.272C31.6385 151.064 31.2005 150.774 30.8245 150.402C30.4525 150.03 30.1605 149.596 29.9485 149.1C29.7405 148.604 29.6365 148.068 29.6365 147.492C29.6365 146.916 29.7405 146.378 29.9485 145.878C30.1565 145.378 30.4465 144.942 30.8185 144.57C31.1945 144.194 31.6325 143.902 32.1325 143.694C32.6365 143.482 33.1805 143.376 33.7645 143.376C34.3885 143.376 34.9225 143.458 35.3665 143.622C35.8145 143.786 36.1285 143.948 36.3085 144.108L35.8585 144.99C35.7065 144.858 35.4485 144.726 35.0845 144.594C34.7245 144.458 34.2985 144.39 33.8065 144.39C33.3585 144.39 32.9485 144.466 32.5765 144.618C32.2045 144.77 31.8805 144.986 31.6045 145.266C31.3325 145.542 31.1205 145.868 30.9685 146.244C30.8205 146.62 30.7465 147.03 30.7465 147.474C30.7465 147.922 30.8205 148.336 30.9685 148.716C31.1205 149.092 31.3325 149.42 31.6045 149.7C31.8805 149.976 32.2045 150.19 32.5765 150.342C32.9485 150.494 33.3585 150.57 33.8065 150.57ZM41.4726 151.44V150.48C41.4406 150.58 41.3466 150.718 41.1906 150.894C41.0386 151.07 40.8286 151.23 40.5606 151.374C40.2966 151.514 39.9846 151.584 39.6246 151.584C39.1686 151.584 38.7546 151.476 38.3826 151.26C38.0146 151.044 37.7206 150.742 37.5006 150.354C37.2846 149.962 37.1766 149.504 37.1766 148.98C37.1766 148.456 37.2846 148 37.5006 147.612C37.7206 147.22 38.0146 146.916 38.3826 146.7C38.7546 146.48 39.1686 146.37 39.6246 146.37C39.9806 146.37 40.2886 146.434 40.5486 146.562C40.8126 146.69 41.0226 146.838 41.1786 147.006C41.3386 147.174 41.4326 147.318 41.4606 147.438V146.514H42.4926V151.44H41.4726ZM38.2086 148.98C38.2086 149.336 38.2866 149.644 38.4426 149.904C38.5986 150.164 38.8006 150.366 39.0486 150.51C39.3006 150.65 39.5686 150.72 39.8526 150.72C40.1566 150.72 40.4286 150.648 40.6686 150.504C40.9086 150.36 41.0986 150.158 41.2386 149.898C41.3786 149.634 41.4486 149.328 41.4486 148.98C41.4486 148.632 41.3786 148.328 41.2386 148.068C41.0986 147.804 40.9086 147.6 40.6686 147.456C40.4286 147.308 40.1566 147.234 39.8526 147.234C39.5686 147.234 39.3006 147.306 39.0486 147.45C38.8006 147.594 38.5986 147.796 38.4426 148.056C38.2866 148.316 38.2086 148.624 38.2086 148.98ZM44.9136 151.44H43.8756V146.514H44.9136V147.366H44.8836C44.9036 147.262 44.9776 147.132 45.1056 146.976C45.2336 146.82 45.4096 146.68 45.6336 146.556C45.8576 146.432 46.1256 146.37 46.4376 146.37C46.6656 146.37 46.8656 146.402 47.0376 146.466C47.2136 146.526 47.3376 146.586 47.4096 146.646L46.9836 147.51C46.9276 147.454 46.8296 147.398 46.6896 147.342C46.5496 147.282 46.3756 147.252 46.1676 147.252C45.9036 147.252 45.6776 147.334 45.4896 147.498C45.3016 147.662 45.1576 147.86 45.0576 148.092C44.9616 148.32 44.9136 148.532 44.9136 148.728V151.44ZM50.1494 151.584C49.6974 151.584 49.2914 151.476 48.9314 151.26C48.5754 151.044 48.2934 150.742 48.0854 150.354C47.8814 149.962 47.7794 149.504 47.7794 148.98C47.7794 148.456 47.8814 148 48.0854 147.612C48.2934 147.22 48.5754 146.916 48.9314 146.7C49.2914 146.48 49.6974 146.37 50.1494 146.37C50.5134 146.37 50.8334 146.434 51.1094 146.562C51.3854 146.686 51.6054 146.832 51.7694 147C51.9334 147.168 52.0274 147.314 52.0514 147.438V143.184H53.1014V151.44H52.0694V150.48C52.0254 150.616 51.9154 150.77 51.7394 150.942C51.5674 151.114 51.3454 151.264 51.0734 151.392C50.8014 151.52 50.4934 151.584 50.1494 151.584ZM50.3894 150.72C50.6934 150.72 50.9714 150.648 51.2234 150.504C51.4754 150.36 51.6754 150.158 51.8234 149.898C51.9754 149.634 52.0514 149.328 52.0514 148.98C52.0514 148.632 51.9754 148.328 51.8234 148.068C51.6754 147.804 51.4754 147.6 51.2234 147.456C50.9714 147.308 50.6934 147.234 50.3894 147.234C50.1094 147.234 49.8494 147.306 49.6094 147.45C49.3694 147.594 49.1754 147.796 49.0274 148.056C48.8834 148.316 48.8114 148.624 48.8114 148.98C48.8114 149.336 48.8834 149.644 49.0274 149.904C49.1754 150.164 49.3694 150.366 49.6094 150.51C49.8494 150.65 50.1094 150.72 50.3894 150.72ZM62.1067 147.93H58.3087V151.44H57.2947V143.52H58.3087V147.006H62.1067V143.52H63.1207V151.44H62.1067V147.93ZM66.9801 151.584C66.4721 151.584 66.0201 151.47 65.6241 151.242C65.2321 151.014 64.9241 150.706 64.7001 150.318C64.4761 149.926 64.3641 149.484 64.3641 148.992C64.3641 148.5 64.4761 148.056 64.7001 147.66C64.9241 147.264 65.2321 146.95 65.6241 146.718C66.0201 146.486 66.4721 146.37 66.9801 146.37C67.4841 146.37 67.9301 146.486 68.3181 146.718C68.7101 146.95 69.0161 147.264 69.2361 147.66C69.4561 148.056 69.5661 148.5 69.5661 148.992C69.5661 149.484 69.4561 149.926 69.2361 150.318C69.0161 150.706 68.7101 151.014 68.3181 151.242C67.9301 151.47 67.4841 151.584 66.9801 151.584ZM66.9801 150.69C67.3001 150.69 67.5781 150.616 67.8141 150.468C68.0541 150.32 68.2401 150.118 68.3721 149.862C68.5041 149.602 68.5701 149.31 68.5701 148.986C68.5701 148.662 68.5041 148.37 68.3721 148.11C68.2401 147.85 68.0541 147.644 67.8141 147.492C67.5781 147.34 67.3001 147.264 66.9801 147.264C66.6561 147.264 66.3741 147.34 66.1341 147.492C65.8941 147.644 65.7061 147.85 65.5701 148.11C65.4381 148.37 65.3721 148.662 65.3721 148.986C65.3721 149.31 65.4381 149.602 65.5701 149.862C65.7061 150.118 65.8941 150.32 66.1341 150.468C66.3741 150.616 66.6561 150.69 66.9801 150.69ZM71.8095 151.44H70.7595V143.184H71.8095V151.44ZM75.4853 151.584C75.0333 151.584 74.6273 151.476 74.2673 151.26C73.9113 151.044 73.6293 150.742 73.4213 150.354C73.2173 149.962 73.1153 149.504 73.1153 148.98C73.1153 148.456 73.2173 148 73.4213 147.612C73.6293 147.22 73.9113 146.916 74.2673 146.7C74.6273 146.48 75.0333 146.37 75.4853 146.37C75.8493 146.37 76.1693 146.434 76.4453 146.562C76.7213 146.686 76.9413 146.832 77.1053 147C77.2693 147.168 77.3633 147.314 77.3873 147.438V143.184H78.4373V151.44H77.4053V150.48C77.3613 150.616 77.2513 150.77 77.0753 150.942C76.9033 151.114 76.6813 151.264 76.4093 151.392C76.1373 151.52 75.8293 151.584 75.4853 151.584ZM75.7253 150.72C76.0293 150.72 76.3073 150.648 76.5593 150.504C76.8113 150.36 77.0113 150.158 77.1593 149.898C77.3113 149.634 77.3873 149.328 77.3873 148.98C77.3873 148.632 77.3113 148.328 77.1593 148.068C77.0113 147.804 76.8113 147.6 76.5593 147.456C76.3073 147.308 76.0293 147.234 75.7253 147.234C75.4453 147.234 75.1853 147.306 74.9453 147.45C74.7053 147.594 74.5113 147.796 74.3633 148.056C74.2193 148.316 74.1473 148.624 74.1473 148.98C74.1473 149.336 74.2193 149.644 74.3633 149.904C74.5113 150.164 74.7053 150.366 74.9453 150.51C75.1853 150.65 75.4453 150.72 75.7253 150.72ZM80.2603 149.19C80.2643 149.486 80.3283 149.756 80.4523 150C80.5763 150.244 80.7603 150.438 81.0043 150.582C81.2523 150.726 81.5563 150.798 81.9163 150.798C82.2203 150.798 82.4783 150.754 82.6903 150.666C82.9063 150.574 83.0823 150.466 83.2183 150.342C83.3543 150.214 83.4523 150.1 83.5123 150L84.0223 150.63C83.8903 150.822 83.7283 150.99 83.5363 151.134C83.3483 151.278 83.1183 151.388 82.8463 151.464C82.5743 151.544 82.2423 151.584 81.8503 151.584C81.3223 151.584 80.8643 151.472 80.4763 151.248C80.0923 151.02 79.7963 150.706 79.5883 150.306C79.3803 149.902 79.2763 149.44 79.2763 148.92C79.2763 148.44 79.3743 148.008 79.5703 147.624C79.7663 147.236 80.0503 146.93 80.4223 146.706C80.7983 146.482 81.2503 146.37 81.7783 146.37C82.2623 146.37 82.6823 146.472 83.0383 146.676C83.3983 146.876 83.6763 147.16 83.8723 147.528C84.0723 147.896 84.1723 148.336 84.1723 148.848C84.1723 148.88 84.1703 148.938 84.1663 149.022C84.1623 149.102 84.1583 149.158 84.1543 149.19H80.2603ZM83.1763 148.404C83.1723 148.24 83.1243 148.06 83.0323 147.864C82.9443 147.668 82.8003 147.5 82.6003 147.36C82.4003 147.22 82.1303 147.15 81.7903 147.15C81.4383 147.15 81.1543 147.218 80.9383 147.354C80.7263 147.49 80.5703 147.656 80.4703 147.852C80.3703 148.044 80.3123 148.228 80.2963 148.404H83.1763ZM86.3511 151.44H85.3131V146.514H86.3511V147.366H86.3211C86.3411 147.262 86.4151 147.132 86.5431 146.976C86.6711 146.82 86.8471 146.68 87.0711 146.556C87.2951 146.432 87.5631 146.37 87.8751 146.37C88.1031 146.37 88.3031 146.402 88.4751 146.466C88.6511 146.526 88.7751 146.586 88.8471 146.646L88.4211 147.51C88.3651 147.454 88.2671 147.398 88.1271 147.342C87.9871 147.282 87.8131 147.252 87.6051 147.252C87.3411 147.252 87.1151 147.334 86.9271 147.498C86.7391 147.662 86.5951 147.86 86.4951 148.092C86.3991 148.32 86.3511 148.532 86.3511 148.728V151.44ZM93.5047 144.492L93.5707 144.504V151.44H92.5447V143.52H93.9907L98.1007 150.45L98.0347 150.462V143.52H99.0607V151.44H97.6027L93.5047 144.492ZM104.601 151.44V150.48C104.569 150.58 104.475 150.718 104.319 150.894C104.167 151.07 103.957 151.23 103.689 151.374C103.425 151.514 103.113 151.584 102.753 151.584C102.297 151.584 101.883 151.476 101.511 151.26C101.143 151.044 100.849 150.742 100.629 150.354C100.413 149.962 100.305 149.504 100.305 148.98C100.305 148.456 100.413 148 100.629 147.612C100.849 147.22 101.143 146.916 101.511 146.7C101.883 146.48 102.297 146.37 102.753 146.37C103.109 146.37 103.417 146.434 103.677 146.562C103.941 146.69 104.151 146.838 104.307 147.006C104.467 147.174 104.561 147.318 104.589 147.438V146.514H105.621V151.44H104.601ZM101.337 148.98C101.337 149.336 101.415 149.644 101.571 149.904C101.727 150.164 101.929 150.366 102.177 150.51C102.429 150.65 102.697 150.72 102.981 150.72C103.285 150.72 103.557 150.648 103.797 150.504C104.037 150.36 104.227 150.158 104.367 149.898C104.507 149.634 104.577 149.328 104.577 148.98C104.577 148.632 104.507 148.328 104.367 148.068C104.227 147.804 104.037 147.6 103.797 147.456C103.557 147.308 103.285 147.234 102.981 147.234C102.697 147.234 102.429 147.306 102.177 147.45C101.929 147.594 101.727 147.796 101.571 148.056C101.415 148.316 101.337 148.624 101.337 148.98ZM112.926 146.37C113.29 146.37 113.602 146.45 113.862 146.61C114.122 146.766 114.32 147.006 114.456 147.33C114.596 147.654 114.666 148.068 114.666 148.572V151.44H113.634V148.782C113.634 148.25 113.56 147.85 113.412 147.582C113.264 147.314 112.994 147.18 112.602 147.18C112.394 147.18 112.194 147.238 112.002 147.354C111.814 147.466 111.658 147.64 111.534 147.876C111.414 148.112 111.354 148.414 111.354 148.782V151.44H110.382V148.782C110.382 148.25 110.29 147.85 110.106 147.582C109.922 147.314 109.664 147.18 109.332 147.18C109.12 147.18 108.92 147.236 108.732 147.348C108.548 147.456 108.398 147.628 108.282 147.864C108.166 148.1 108.108 148.406 108.108 148.782V151.44H107.07V146.514H108.108V147.27C108.152 147.146 108.246 147.014 108.39 146.874C108.538 146.734 108.726 146.616 108.954 146.52C109.186 146.42 109.444 146.37 109.728 146.37C110.024 146.37 110.272 146.43 110.472 146.55C110.672 146.67 110.83 146.818 110.946 146.994C111.062 147.166 111.142 147.332 111.186 147.492C111.242 147.32 111.35 147.148 111.51 146.976C111.67 146.8 111.872 146.656 112.116 146.544C112.36 146.428 112.63 146.37 112.926 146.37ZM116.764 149.19C116.768 149.486 116.832 149.756 116.956 150C117.08 150.244 117.264 150.438 117.508 150.582C117.756 150.726 118.06 150.798 118.42 150.798C118.724 150.798 118.982 150.754 119.194 150.666C119.41 150.574 119.586 150.466 119.722 150.342C119.858 150.214 119.956 150.1 120.016 150L120.526 150.63C120.394 150.822 120.232 150.99 120.04 151.134C119.852 151.278 119.622 151.388 119.35 151.464C119.078 151.544 118.746 151.584 118.354 151.584C117.826 151.584 117.368 151.472 116.98 151.248C116.596 151.02 116.3 150.706 116.092 150.306C115.884 149.902 115.78 149.44 115.78 148.92C115.78 148.44 115.878 148.008 116.074 147.624C116.27 147.236 116.554 146.93 116.926 146.706C117.302 146.482 117.754 146.37 118.282 146.37C118.766 146.37 119.186 146.472 119.542 146.676C119.902 146.876 120.18 147.16 120.376 147.528C120.576 147.896 120.676 148.336 120.676 148.848C120.676 148.88 120.674 148.938 120.67 149.022C120.666 149.102 120.662 149.158 120.658 149.19H116.764ZM119.68 148.404C119.676 148.24 119.628 148.06 119.536 147.864C119.448 147.668 119.304 147.5 119.104 147.36C118.904 147.22 118.634 147.15 118.294 147.15C117.942 147.15 117.658 147.218 117.442 147.354C117.23 147.49 117.074 147.656 116.974 147.852C116.874 148.044 116.816 148.228 116.8 148.404H119.68Z" fill="#391713"/>
<path d="M164.345 143.52H169.025V144.45H165.359V147.018H168.953V147.924H165.359V150.51H169.025V151.44H164.345V143.52ZM173.523 148.836L175.659 151.44H174.459L172.881 149.478L171.309 151.44H170.175L172.305 148.896L170.391 146.514H171.597L172.935 148.224L174.297 146.514H175.413L173.523 148.836ZM177.728 153.936H176.69V146.514H177.746V147.438C177.782 147.314 177.882 147.168 178.046 147C178.21 146.832 178.43 146.686 178.706 146.562C178.986 146.434 179.306 146.37 179.666 146.37C180.122 146.37 180.526 146.48 180.878 146.7C181.234 146.916 181.512 147.22 181.712 147.612C181.916 148 182.018 148.456 182.018 148.98C182.018 149.504 181.914 149.962 181.706 150.354C181.498 150.742 181.214 151.044 180.854 151.26C180.498 151.476 180.09 151.584 179.63 151.584C179.258 151.584 178.932 151.514 178.652 151.374C178.376 151.234 178.158 151.076 177.998 150.9C177.842 150.724 177.752 150.584 177.728 150.48V153.936ZM180.986 148.98C180.986 148.624 180.912 148.316 180.764 148.056C180.62 147.796 180.428 147.594 180.188 147.45C179.948 147.306 179.688 147.234 179.408 147.234C179.1 147.234 178.82 147.308 178.568 147.456C178.316 147.6 178.116 147.804 177.968 148.068C177.82 148.328 177.746 148.632 177.746 148.98C177.746 149.328 177.82 149.634 177.968 149.898C178.116 150.158 178.316 150.36 178.568 150.504C178.82 150.648 179.1 150.72 179.408 150.72C179.688 150.72 179.948 150.65 180.188 150.51C180.428 150.366 180.62 150.164 180.764 149.904C180.912 149.644 180.986 149.336 180.986 148.98ZM183.22 151.44V146.514H184.264V151.44H183.22ZM183.754 144.828C183.566 144.828 183.404 144.762 183.268 144.63C183.136 144.494 183.07 144.332 183.07 144.144C183.07 143.956 183.136 143.794 183.268 143.658C183.404 143.522 183.566 143.454 183.754 143.454C183.878 143.454 183.992 143.486 184.096 143.55C184.204 143.614 184.29 143.698 184.354 143.802C184.418 143.902 184.45 144.016 184.45 144.144C184.45 144.332 184.382 144.494 184.246 144.63C184.11 144.762 183.946 144.828 183.754 144.828ZM186.885 151.44H185.847V146.514H186.885V147.366H186.855C186.875 147.262 186.949 147.132 187.077 146.976C187.205 146.82 187.381 146.68 187.605 146.556C187.829 146.432 188.097 146.37 188.409 146.37C188.637 146.37 188.837 146.402 189.009 146.466C189.185 146.526 189.309 146.586 189.381 146.646L188.955 147.51C188.899 147.454 188.801 147.398 188.661 147.342C188.521 147.282 188.347 147.252 188.139 147.252C187.875 147.252 187.649 147.334 187.461 147.498C187.273 147.662 187.129 147.86 187.029 148.092C186.933 148.32 186.885 148.532 186.885 148.728V151.44ZM192.101 150.486L193.763 146.514H194.807L191.483 153.936H190.427L191.543 151.44L189.515 146.514H190.577L192.101 150.486ZM198.592 143.52H200.458C201.302 143.52 201.996 143.69 202.54 144.03C203.088 144.366 203.494 144.832 203.758 145.428C204.022 146.024 204.154 146.706 204.154 147.474C204.154 148.246 204.022 148.93 203.758 149.526C203.494 150.122 203.09 150.59 202.546 150.93C202.002 151.27 201.306 151.44 200.458 151.44H198.592V143.52ZM199.612 144.456V150.504H200.374C200.998 150.504 201.508 150.374 201.904 150.114C202.3 149.854 202.592 149.498 202.78 149.046C202.972 148.59 203.07 148.07 203.074 147.486C203.074 146.898 202.98 146.378 202.792 145.926C202.604 145.47 202.31 145.112 201.91 144.852C201.51 144.588 200.998 144.456 200.374 144.456H199.612ZM209.39 151.44V150.48C209.358 150.58 209.264 150.718 209.108 150.894C208.956 151.07 208.746 151.23 208.478 151.374C208.214 151.514 207.902 151.584 207.542 151.584C207.086 151.584 206.672 151.476 206.3 151.26C205.932 151.044 205.638 150.742 205.418 150.354C205.202 149.962 205.094 149.504 205.094 148.98C205.094 148.456 205.202 148 205.418 147.612C205.638 147.22 205.932 146.916 206.3 146.7C206.672 146.48 207.086 146.37 207.542 146.37C207.898 146.37 208.206 146.434 208.466 146.562C208.73 146.69 208.94 146.838 209.096 147.006C209.256 147.174 209.35 147.318 209.378 147.438V146.514H210.41V151.44H209.39ZM206.126 148.98C206.126 149.336 206.204 149.644 206.36 149.904C206.516 150.164 206.718 150.366 206.966 150.51C207.218 150.65 207.486 150.72 207.77 150.72C208.074 150.72 208.346 150.648 208.586 150.504C208.826 150.36 209.016 150.158 209.156 149.898C209.296 149.634 209.366 149.328 209.366 148.98C209.366 148.632 209.296 148.328 209.156 148.068C209.016 147.804 208.826 147.6 208.586 147.456C208.346 147.308 208.074 147.234 207.77 147.234C207.486 147.234 207.218 147.306 206.966 147.45C206.718 147.594 206.516 147.796 206.36 148.056C206.204 148.316 206.126 148.624 206.126 148.98ZM211.385 146.514H212.351V144.492H213.389V146.514H214.655V147.408H213.389V149.844C213.389 150.132 213.439 150.344 213.539 150.48C213.643 150.616 213.781 150.684 213.953 150.684C214.105 150.684 214.223 150.656 214.307 150.6C214.391 150.544 214.441 150.506 214.457 150.486L214.871 151.254C214.847 151.274 214.783 151.312 214.679 151.368C214.575 151.424 214.441 151.474 214.277 151.518C214.113 151.562 213.921 151.584 213.701 151.584C213.317 151.584 212.995 151.468 212.735 151.236C212.479 151 212.351 150.628 212.351 150.12V147.408H211.385V146.514ZM216.431 149.19C216.435 149.486 216.499 149.756 216.623 150C216.747 150.244 216.931 150.438 217.175 150.582C217.423 150.726 217.727 150.798 218.087 150.798C218.391 150.798 218.649 150.754 218.861 150.666C219.077 150.574 219.253 150.466 219.389 150.342C219.525 150.214 219.623 150.1 219.683 150L220.193 150.63C220.061 150.822 219.899 150.99 219.707 151.134C219.519 151.278 219.289 151.388 219.017 151.464C218.745 151.544 218.413 151.584 218.021 151.584C217.493 151.584 217.035 151.472 216.647 151.248C216.263 151.02 215.967 150.706 215.759 150.306C215.551 149.902 215.447 149.44 215.447 148.92C215.447 148.44 215.545 148.008 215.741 147.624C215.937 147.236 216.221 146.93 216.593 146.706C216.969 146.482 217.421 146.37 217.949 146.37C218.433 146.37 218.853 146.472 219.209 146.676C219.569 146.876 219.847 147.16 220.043 147.528C220.243 147.896 220.343 148.336 220.343 148.848C220.343 148.88 220.341 148.938 220.337 149.022C220.333 149.102 220.329 149.158 220.325 149.19H216.431ZM219.347 148.404C219.343 148.24 219.295 148.06 219.203 147.864C219.115 147.668 218.971 147.5 218.771 147.36C218.571 147.22 218.301 147.15 217.961 147.15C217.609 147.15 217.325 147.218 217.109 147.354C216.897 147.49 216.741 147.656 216.641 147.852C216.541 148.044 216.483 148.228 216.467 148.404H219.347Z" fill="#391713"/>
<path d="M34.1865 164.764C34.1865 165.394 34.0675 165.936 33.8295 166.388C33.5962 166.836 33.2602 167.179 32.8215 167.417C32.3875 167.655 31.8742 167.774 31.2815 167.774C30.8522 167.774 30.4789 167.718 30.1615 167.606C29.8442 167.499 29.5922 167.382 29.4055 167.256C29.2189 167.126 29.1045 167.028 29.0625 166.962L29.8465 165.149C29.9025 165.229 29.9819 165.315 30.0845 165.408C30.1872 165.502 30.3132 165.583 30.4625 165.653C30.6119 165.719 30.7799 165.751 30.9665 165.751C31.1812 165.751 31.3725 165.707 31.5405 165.618C31.7085 165.53 31.8415 165.383 31.9395 165.177C32.0422 164.972 32.0935 164.699 32.0935 164.358V158.366H34.1865V164.764ZM38.5567 167.774C37.9267 167.774 37.3667 167.646 36.8767 167.389C36.3914 167.128 36.0087 166.771 35.7287 166.318C35.4534 165.861 35.3157 165.338 35.3157 164.75C35.3157 164.162 35.4534 163.64 35.7287 163.182C36.0087 162.72 36.3914 162.356 36.8767 162.09C37.3667 161.824 37.9267 161.691 38.5567 161.691C39.1867 161.691 39.7421 161.824 40.2227 162.09C40.7034 162.356 41.0791 162.72 41.3497 163.182C41.6204 163.64 41.7557 164.162 41.7557 164.75C41.7557 165.338 41.6204 165.861 41.3497 166.318C41.0791 166.771 40.7034 167.128 40.2227 167.389C39.7421 167.646 39.1867 167.774 38.5567 167.774ZM38.5567 166.024C38.7994 166.024 39.0094 165.971 39.1867 165.863C39.3641 165.756 39.5017 165.604 39.5997 165.408C39.6977 165.212 39.7467 164.991 39.7467 164.743C39.7467 164.491 39.6977 164.267 39.5997 164.071C39.5017 163.875 39.3641 163.721 39.1867 163.609C39.0094 163.497 38.7994 163.441 38.5567 163.441C38.3141 163.441 38.1017 163.497 37.9197 163.609C37.7424 163.721 37.6024 163.875 37.4997 164.071C37.4017 164.267 37.3527 164.491 37.3527 164.743C37.3527 164.991 37.4017 165.212 37.4997 165.408C37.6024 165.604 37.7424 165.756 37.9197 165.863C38.1017 165.971 38.3141 166.024 38.5567 166.024ZM46.8671 161.691C47.2685 161.691 47.6605 161.773 48.0431 161.936C48.4258 162.1 48.7408 162.359 48.9881 162.713C49.2355 163.063 49.3591 163.525 49.3591 164.099V167.606H47.2311V164.449C47.2311 164.039 47.1378 163.731 46.9511 163.525C46.7691 163.315 46.5195 163.21 46.2021 163.21C45.9921 163.21 45.7915 163.266 45.6001 163.378C45.4088 163.486 45.2525 163.64 45.1311 163.84C45.0145 164.036 44.9561 164.263 44.9561 164.519V167.606H42.8211V157.974H44.9561V162.706C45.0075 162.552 45.1218 162.398 45.2991 162.244C45.4811 162.086 45.7075 161.955 45.9781 161.852C46.2535 161.745 46.5498 161.691 46.8671 161.691ZM54.5701 161.691C54.9714 161.691 55.3634 161.773 55.7461 161.936C56.1288 162.1 56.4438 162.359 56.6911 162.713C56.9384 163.063 57.0621 163.525 57.0621 164.099V167.606H54.9271V164.449C54.9271 164.039 54.8291 163.731 54.6331 163.525C54.4371 163.315 54.1804 163.21 53.8631 163.21C53.6531 163.21 53.4548 163.266 53.2681 163.378C53.0861 163.486 52.9368 163.64 52.8201 163.84C52.7081 164.036 52.6521 164.263 52.6521 164.519V167.606H50.5241V161.859H52.6521V162.706C52.7081 162.552 52.8248 162.398 53.0021 162.244C53.1841 162.086 53.4104 161.955 53.6811 161.852C53.9564 161.745 54.2528 161.691 54.5701 161.691ZM65.3638 158.198C65.9378 158.198 66.4394 158.261 66.8688 158.387C67.2981 158.513 67.6434 158.646 67.9048 158.786C68.1661 158.926 68.3248 159.02 68.3808 159.066L67.3728 160.753C67.2981 160.697 67.1698 160.616 66.9878 160.508C66.8104 160.401 66.5981 160.305 66.3508 160.221C66.1081 160.137 65.8538 160.095 65.5878 160.095C65.2284 160.095 64.9368 160.161 64.7128 160.291C64.4934 160.417 64.3838 160.606 64.3838 160.858C64.3838 161.031 64.4421 161.187 64.5588 161.327C64.6801 161.463 64.8621 161.593 65.1048 161.719C65.3521 161.841 65.6648 161.974 66.0428 162.118C66.3881 162.244 66.7124 162.394 67.0158 162.566C67.3191 162.739 67.5851 162.944 67.8138 163.182C68.0471 163.416 68.2314 163.686 68.3668 163.994C68.5021 164.302 68.5698 164.652 68.5698 165.044C68.5698 165.511 68.4741 165.917 68.2828 166.262C68.0914 166.603 67.8301 166.885 67.4988 167.109C67.1721 167.333 66.7988 167.499 66.3788 167.606C65.9634 167.718 65.5318 167.774 65.0838 167.774C64.4491 167.774 63.8798 167.702 63.3758 167.557C62.8764 167.413 62.4728 167.256 62.1648 167.088C61.8568 166.92 61.6724 166.808 61.6118 166.752L62.6548 164.995C62.7108 165.037 62.8181 165.105 62.9768 165.198C63.1401 165.292 63.3384 165.39 63.5718 165.492C63.8051 165.59 64.0524 165.674 64.3138 165.744C64.5798 165.814 64.8411 165.849 65.0978 165.849C65.5271 165.849 65.8491 165.768 66.0638 165.604C66.2784 165.436 66.3858 165.217 66.3858 164.946C66.3858 164.746 66.3181 164.566 66.1828 164.407C66.0474 164.249 65.8444 164.099 65.5738 163.959C65.3031 163.815 64.9648 163.663 64.5588 163.504C64.1528 163.341 63.7724 163.143 63.4178 162.909C63.0678 162.676 62.7831 162.384 62.5638 162.034C62.3444 161.684 62.2348 161.25 62.2348 160.732C62.2348 160.214 62.3794 159.766 62.6688 159.388C62.9628 159.006 63.3478 158.712 63.8238 158.506C64.3044 158.301 64.8178 158.198 65.3638 158.198ZM77.7408 161.691C78.1748 161.691 78.5574 161.782 78.8888 161.964C79.2201 162.142 79.4791 162.417 79.6658 162.79C79.8571 163.164 79.9528 163.644 79.9528 164.232V167.606H77.8598V164.554C77.8598 164.153 77.7991 163.829 77.6778 163.581C77.5564 163.334 77.3161 163.21 76.9568 163.21C76.7421 163.21 76.5531 163.266 76.3898 163.378C76.2264 163.49 76.1004 163.647 76.0118 163.847C75.9231 164.043 75.8788 164.279 75.8788 164.554V167.606H73.9258V164.554C73.9258 164.153 73.8581 163.829 73.7228 163.581C73.5921 163.334 73.3588 163.21 73.0228 163.21C72.8081 163.21 72.6191 163.266 72.4558 163.378C72.2924 163.486 72.1664 163.64 72.0778 163.84C71.9938 164.036 71.9518 164.274 71.9518 164.554V167.606H69.8378V161.859H71.9518V162.678C72.0078 162.534 72.1291 162.387 72.3158 162.237C72.5071 162.083 72.7428 161.955 73.0228 161.852C73.3028 161.745 73.5991 161.691 73.9118 161.691C74.2524 161.691 74.5371 161.743 74.7658 161.845C74.9944 161.943 75.1811 162.076 75.3258 162.244C75.4751 162.412 75.5941 162.594 75.6828 162.79C75.7481 162.622 75.8764 162.454 76.0678 162.286C76.2638 162.114 76.5064 161.971 76.7958 161.859C77.0898 161.747 77.4048 161.691 77.7408 161.691ZM81.2554 167.606V161.859H83.3834V167.606H81.2554ZM82.3474 160.676C82.0114 160.676 81.7267 160.56 81.4934 160.326C81.2601 160.088 81.1434 159.806 81.1434 159.479C81.1434 159.153 81.2601 158.87 81.4934 158.632C81.7314 158.39 82.0161 158.268 82.3474 158.268C82.5667 158.268 82.7674 158.324 82.9494 158.436C83.1314 158.544 83.2784 158.688 83.3904 158.87C83.5024 159.052 83.5584 159.255 83.5584 159.479C83.5584 159.806 83.4394 160.088 83.2014 160.326C82.9634 160.56 82.6787 160.676 82.3474 160.676ZM84.3595 161.859H85.3395V159.5H87.4465V161.859H88.7345V163.609H87.4465V165.212C87.4465 165.45 87.4815 165.644 87.5515 165.793C87.6215 165.938 87.7498 166.01 87.9365 166.01C88.0625 166.01 88.1698 165.982 88.2585 165.926C88.3471 165.87 88.4008 165.833 88.4195 165.814L89.1475 167.326C89.1148 167.354 89.0121 167.406 88.8395 167.48C88.6715 167.555 88.4568 167.623 88.1955 167.683C87.9341 167.744 87.6425 167.774 87.3205 167.774C86.7465 167.774 86.2728 167.613 85.8995 167.291C85.5261 166.965 85.3395 166.463 85.3395 165.786V163.609H84.3595V161.859ZM93.9394 161.691C94.3407 161.691 94.7327 161.773 95.1154 161.936C95.4981 162.1 95.8131 162.359 96.0604 162.713C96.3077 163.063 96.4314 163.525 96.4314 164.099V167.606H94.3034V164.449C94.3034 164.039 94.2101 163.731 94.0234 163.525C93.8414 163.315 93.5917 163.21 93.2744 163.21C93.0644 163.21 92.8637 163.266 92.6724 163.378C92.4811 163.486 92.3247 163.64 92.2034 163.84C92.0867 164.036 92.0284 164.263 92.0284 164.519V167.606H89.8934V157.974H92.0284V162.706C92.0797 162.552 92.1941 162.398 92.3714 162.244C92.5534 162.086 92.7797 161.955 93.0504 161.852C93.3257 161.745 93.6221 161.691 93.9394 161.691Z" fill="#391713"/>
<path d="M163.98 162.993C163.98 162.191 164.08 161.491 164.281 160.893C164.486 160.291 164.764 159.792 165.114 159.395C165.468 158.994 165.87 158.695 166.318 158.499C166.77 158.299 167.244 158.198 167.739 158.198C168.233 158.198 168.705 158.299 169.153 158.499C169.605 158.695 170.007 158.994 170.357 159.395C170.707 159.792 170.982 160.291 171.183 160.893C171.383 161.491 171.484 162.191 171.484 162.993C171.484 163.847 171.383 164.578 171.183 165.184C170.982 165.791 170.707 166.286 170.357 166.668C170.007 167.046 169.605 167.326 169.153 167.508C168.705 167.686 168.233 167.774 167.739 167.774C167.244 167.774 166.77 167.686 166.318 167.508C165.87 167.326 165.468 167.046 165.114 166.668C164.764 166.286 164.486 165.791 164.281 165.184C164.08 164.578 163.98 163.847 163.98 162.993ZM166.08 162.993C166.08 163.661 166.147 164.211 166.283 164.645C166.418 165.079 166.609 165.404 166.857 165.618C167.104 165.828 167.398 165.933 167.739 165.933C168.079 165.933 168.371 165.828 168.614 165.618C168.861 165.404 169.05 165.079 169.181 164.645C169.316 164.207 169.384 163.656 169.384 162.993C169.384 162.368 169.316 161.836 169.181 161.397C169.05 160.959 168.861 160.623 168.614 160.389C168.371 160.156 168.079 160.039 167.739 160.039C167.398 160.039 167.104 160.156 166.857 160.389C166.609 160.623 166.418 160.959 166.283 161.397C166.147 161.836 166.08 162.368 166.08 162.993ZM177.921 158.366V163.833H178.992V165.66H177.921V167.606H175.835V165.66H172.027V164.001L175.52 158.366H177.921ZM175.835 163.833V161.047H175.821L174.134 163.833H175.835ZM184.17 157.974H185.85L181.237 168.95H179.557L184.17 157.974ZM190.205 159.976C189.897 159.976 189.624 160.051 189.386 160.2C189.153 160.345 188.954 160.515 188.791 160.711C188.632 160.907 188.511 161.087 188.427 161.25C188.343 161.409 188.296 161.502 188.287 161.53L186.495 160.711C186.504 160.651 186.549 160.529 186.628 160.347C186.707 160.161 186.833 159.946 187.006 159.703C187.179 159.461 187.405 159.225 187.685 158.996C187.97 158.768 188.32 158.579 188.735 158.429C189.15 158.275 189.64 158.198 190.205 158.198C190.858 158.198 191.4 158.292 191.829 158.478C192.263 158.665 192.604 158.91 192.851 159.213C193.103 159.512 193.283 159.836 193.39 160.186C193.497 160.536 193.551 160.872 193.551 161.194C193.551 161.596 193.469 161.985 193.306 162.363C193.147 162.737 192.94 163.091 192.683 163.427C192.426 163.759 192.151 164.064 191.857 164.344C191.563 164.62 191.281 164.862 191.01 165.072C190.744 165.278 190.518 165.441 190.331 165.562C190.144 165.684 190.032 165.758 189.995 165.786H193.474V167.606H186.845V165.947C186.915 165.896 187.074 165.782 187.321 165.604C187.568 165.427 187.865 165.205 188.21 164.939C188.56 164.673 188.922 164.382 189.295 164.064C189.673 163.742 190.023 163.411 190.345 163.07C190.672 162.73 190.938 162.396 191.143 162.069C191.348 161.743 191.451 161.442 191.451 161.166C191.451 160.732 191.341 160.427 191.122 160.249C190.907 160.067 190.602 159.976 190.205 159.976ZM198.106 167.774C197.499 167.774 196.939 167.658 196.426 167.424C195.912 167.191 195.499 166.869 195.187 166.458C194.874 166.043 194.718 165.569 194.718 165.037C194.718 164.608 194.788 164.239 194.928 163.931C195.072 163.623 195.268 163.364 195.516 163.154C195.768 162.94 196.045 162.762 196.349 162.622C196.12 162.492 195.91 162.34 195.719 162.167C195.532 161.99 195.383 161.778 195.271 161.53C195.163 161.283 195.11 160.98 195.11 160.62C195.11 160.126 195.245 159.699 195.516 159.339C195.786 158.975 196.146 158.695 196.594 158.499C197.046 158.299 197.546 158.198 198.092 158.198C198.647 158.198 199.146 158.299 199.59 158.499C200.038 158.695 200.39 158.975 200.647 159.339C200.908 159.699 201.039 160.126 201.039 160.62C201.039 161.152 200.924 161.57 200.696 161.873C200.467 162.172 200.18 162.422 199.835 162.622C200.143 162.762 200.418 162.94 200.661 163.154C200.908 163.364 201.104 163.623 201.249 163.931C201.398 164.239 201.473 164.608 201.473 165.037C201.473 165.569 201.316 166.043 201.004 166.458C200.696 166.869 200.285 167.191 199.772 167.424C199.263 167.658 198.708 167.774 198.106 167.774ZM198.092 165.954C198.316 165.954 198.516 165.901 198.694 165.793C198.876 165.686 199.02 165.544 199.128 165.366C199.24 165.184 199.296 164.984 199.296 164.764C199.296 164.545 199.24 164.344 199.128 164.162C199.02 163.98 198.876 163.838 198.694 163.735C198.516 163.628 198.316 163.574 198.092 163.574C197.868 163.574 197.665 163.628 197.483 163.735C197.305 163.843 197.161 163.987 197.049 164.169C196.941 164.347 196.888 164.545 196.888 164.764C196.888 164.984 196.941 165.184 197.049 165.366C197.161 165.544 197.305 165.686 197.483 165.793C197.665 165.901 197.868 165.954 198.092 165.954ZM198.099 161.964C198.295 161.964 198.472 161.918 198.631 161.824C198.794 161.726 198.925 161.596 199.023 161.432C199.121 161.264 199.17 161.082 199.17 160.886C199.17 160.69 199.121 160.513 199.023 160.354C198.925 160.191 198.794 160.06 198.631 159.962C198.472 159.864 198.295 159.815 198.099 159.815C197.903 159.815 197.723 159.864 197.56 159.962C197.396 160.06 197.266 160.191 197.168 160.354C197.07 160.513 197.021 160.69 197.021 160.886C197.021 161.082 197.07 161.262 197.168 161.425C197.266 161.589 197.396 161.719 197.56 161.817C197.723 161.915 197.903 161.964 198.099 161.964Z" fill="#391713"/>
<path d="M29.9605 114.529C29.9605 113.356 30.1005 112.339 30.3805 111.479C30.6672 110.619 31.0472 109.909 31.5205 109.349C32.0005 108.782 32.5339 108.362 33.1205 108.089C33.7139 107.816 34.3239 107.679 34.9505 107.679C35.5772 107.679 36.1872 107.816 36.7805 108.089C37.3739 108.362 37.9039 108.782 38.3705 109.349C38.8439 109.909 39.2172 110.619 39.4905 111.479C39.7705 112.339 39.9105 113.356 39.9105 114.529C39.9105 115.722 39.7705 116.752 39.4905 117.619C39.2172 118.479 38.8439 119.186 38.3705 119.739C37.9039 120.286 37.3739 120.692 36.7805 120.959C36.1872 121.226 35.5772 121.359 34.9505 121.359C34.3239 121.359 33.7139 121.226 33.1205 120.959C32.5339 120.692 32.0005 120.286 31.5205 119.739C31.0472 119.186 30.6672 118.479 30.3805 117.619C30.1005 116.752 29.9605 115.722 29.9605 114.529ZM31.7105 114.529C31.7105 115.709 31.8572 116.692 32.1505 117.479C32.4439 118.259 32.8339 118.842 33.3205 119.229C33.8139 119.616 34.3572 119.809 34.9505 119.809C35.5439 119.809 36.0839 119.616 36.5705 119.229C37.0572 118.842 37.4472 118.259 37.7405 117.479C38.0339 116.692 38.1805 115.709 38.1805 114.529C38.1805 113.362 38.0339 112.389 37.7405 111.609C37.4472 110.822 37.0572 110.229 36.5705 109.829C36.0839 109.429 35.5439 109.229 34.9505 109.229C34.3572 109.229 33.8139 109.429 33.3205 109.829C32.8339 110.229 32.4439 110.822 32.1505 111.609C31.8572 112.389 31.7105 113.362 31.7105 114.529ZM41.5816 114.529C41.5816 113.356 41.7216 112.339 42.0016 111.479C42.2883 110.619 42.6683 109.909 43.1416 109.349C43.6216 108.782 44.155 108.362 44.7416 108.089C45.335 107.816 45.945 107.679 46.5716 107.679C47.1983 107.679 47.8083 107.816 48.4016 108.089C48.995 108.362 49.525 108.782 49.9916 109.349C50.465 109.909 50.8383 110.619 51.1116 111.479C51.3916 112.339 51.5316 113.356 51.5316 114.529C51.5316 115.722 51.3916 116.752 51.1116 117.619C50.8383 118.479 50.465 119.186 49.9916 119.739C49.525 120.286 48.995 120.692 48.4016 120.959C47.8083 121.226 47.1983 121.359 46.5716 121.359C45.945 121.359 45.335 121.226 44.7416 120.959C44.155 120.692 43.6216 120.286 43.1416 119.739C42.6683 119.186 42.2883 118.479 42.0016 117.619C41.7216 116.752 41.5816 115.722 41.5816 114.529ZM43.3316 114.529C43.3316 115.709 43.4783 116.692 43.7716 117.479C44.065 118.259 44.455 118.842 44.9416 119.229C45.435 119.616 45.9783 119.809 46.5716 119.809C47.165 119.809 47.705 119.616 48.1916 119.229C48.6783 118.842 49.0683 118.259 49.3616 117.479C49.655 116.692 49.8016 115.709 49.8016 114.529C49.8016 113.362 49.655 112.389 49.3616 111.609C49.0683 110.822 48.6783 110.229 48.1916 109.829C47.705 109.429 47.165 109.229 46.5716 109.229C45.9783 109.229 45.435 109.429 44.9416 109.829C44.455 110.229 44.065 110.822 43.7716 111.609C43.4783 112.389 43.3316 113.362 43.3316 114.529ZM53.2027 114.529C53.2027 113.356 53.3427 112.339 53.6227 111.479C53.9094 110.619 54.2894 109.909 54.7627 109.349C55.2427 108.782 55.7761 108.362 56.3627 108.089C56.9561 107.816 57.5661 107.679 58.1927 107.679C58.8194 107.679 59.4294 107.816 60.0227 108.089C60.6161 108.362 61.1461 108.782 61.6127 109.349C62.0861 109.909 62.4594 110.619 62.7327 111.479C63.0127 112.339 63.1527 113.356 63.1527 114.529C63.1527 115.722 63.0127 116.752 62.7327 117.619C62.4594 118.479 62.0861 119.186 61.6127 119.739C61.1461 120.286 60.6161 120.692 60.0227 120.959C59.4294 121.226 58.8194 121.359 58.1927 121.359C57.5661 121.359 56.9561 121.226 56.3627 120.959C55.7761 120.692 55.2427 120.286 54.7627 119.739C54.2894 119.186 53.9094 118.479 53.6227 117.619C53.3427 116.752 53.2027 115.722 53.2027 114.529ZM54.9527 114.529C54.9527 115.709 55.0994 116.692 55.3927 117.479C55.6861 118.259 56.0761 118.842 56.5627 119.229C57.0561 119.616 57.5994 119.809 58.1927 119.809C58.7861 119.809 59.3261 119.616 59.8127 119.229C60.2994 118.842 60.6894 118.259 60.9827 117.479C61.2761 116.692 61.4227 115.709 61.4227 114.529C61.4227 113.362 61.2761 112.389 60.9827 111.609C60.6894 110.822 60.2994 110.229 59.8127 109.829C59.3261 109.429 58.7861 109.229 58.1927 109.229C57.5994 109.229 57.0561 109.429 56.5627 109.829C56.0761 110.229 55.6861 110.822 55.3927 111.609C55.0994 112.389 54.9527 113.362 54.9527 114.529ZM69.8043 114.529C69.8043 113.356 69.9443 112.339 70.2243 111.479C70.511 110.619 70.891 109.909 71.3643 109.349C71.8443 108.782 72.3776 108.362 72.9643 108.089C73.5576 107.816 74.1676 107.679 74.7943 107.679C75.421 107.679 76.031 107.816 76.6243 108.089C77.2176 108.362 77.7476 108.782 78.2143 109.349C78.6876 109.909 79.061 110.619 79.3343 111.479C79.6143 112.339 79.7543 113.356 79.7543 114.529C79.7543 115.722 79.6143 116.752 79.3343 117.619C79.061 118.479 78.6876 119.186 78.2143 119.739C77.7476 120.286 77.2176 120.692 76.6243 120.959C76.031 121.226 75.421 121.359 74.7943 121.359C74.1676 121.359 73.5576 121.226 72.9643 120.959C72.3776 120.692 71.8443 120.286 71.3643 119.739C70.891 119.186 70.511 118.479 70.2243 117.619C69.9443 116.752 69.8043 115.722 69.8043 114.529ZM71.5543 114.529C71.5543 115.709 71.701 116.692 71.9943 117.479C72.2876 118.259 72.6776 118.842 73.1643 119.229C73.6576 119.616 74.201 119.809 74.7943 119.809C75.3876 119.809 75.9276 119.616 76.4143 119.229C76.901 118.842 77.291 118.259 77.5843 117.479C77.8776 116.692 78.0243 115.709 78.0243 114.529C78.0243 113.362 77.8776 112.389 77.5843 111.609C77.291 110.822 76.901 110.229 76.4143 109.829C75.9276 109.429 75.3876 109.229 74.7943 109.229C74.201 109.229 73.6576 109.429 73.1643 109.829C72.6776 110.229 72.2876 110.822 71.9943 111.609C71.701 112.389 71.5543 113.362 71.5543 114.529ZM81.4254 114.529C81.4254 113.356 81.5654 112.339 81.8454 111.479C82.132 110.619 82.512 109.909 82.9854 109.349C83.4654 108.782 83.9987 108.362 84.5854 108.089C85.1787 107.816 85.7887 107.679 86.4154 107.679C87.042 107.679 87.652 107.816 88.2454 108.089C88.8387 108.362 89.3687 108.782 89.8354 109.349C90.3087 109.909 90.682 110.619 90.9554 111.479C91.2354 112.339 91.3754 113.356 91.3754 114.529C91.3754 115.722 91.2354 116.752 90.9554 117.619C90.682 118.479 90.3087 119.186 89.8354 119.739C89.3687 120.286 88.8387 120.692 88.2454 120.959C87.652 121.226 87.042 121.359 86.4154 121.359C85.7887 121.359 85.1787 121.226 84.5854 120.959C83.9987 120.692 83.4654 120.286 82.9854 119.739C82.512 119.186 82.132 118.479 81.8454 117.619C81.5654 116.752 81.4254 115.722 81.4254 114.529ZM83.1754 114.529C83.1754 115.709 83.322 116.692 83.6154 117.479C83.9087 118.259 84.2987 118.842 84.7854 119.229C85.2787 119.616 85.822 119.809 86.4154 119.809C87.0087 119.809 87.5487 119.616 88.0354 119.229C88.522 118.842 88.912 118.259 89.2054 117.479C89.4987 116.692 89.6454 115.709 89.6454 114.529C89.6454 113.362 89.4987 112.389 89.2054 111.609C88.912 110.822 88.522 110.229 88.0354 109.829C87.5487 109.429 87.0087 109.229 86.4154 109.229C85.822 109.229 85.2787 109.429 84.7854 109.829C84.2987 110.229 83.9087 110.822 83.6154 111.609C83.322 112.389 83.1754 113.362 83.1754 114.529ZM93.0465 114.529C93.0465 113.356 93.1865 112.339 93.4665 111.479C93.7531 110.619 94.1331 109.909 94.6065 109.349C95.0865 108.782 95.6198 108.362 96.2065 108.089C96.7998 107.816 97.4098 107.679 98.0365 107.679C98.6631 107.679 99.2731 107.816 99.8665 108.089C100.46 108.362 100.99 108.782 101.456 109.349C101.93 109.909 102.303 110.619 102.576 111.479C102.856 112.339 102.996 113.356 102.996 114.529C102.996 115.722 102.856 116.752 102.576 117.619C102.303 118.479 101.93 119.186 101.456 119.739C100.99 120.286 100.46 120.692 99.8665 120.959C99.2731 121.226 98.6631 121.359 98.0365 121.359C97.4098 121.359 96.7998 121.226 96.2065 120.959C95.6198 120.692 95.0865 120.286 94.6065 119.739C94.1331 119.186 93.7531 118.479 93.4665 117.619C93.1865 116.752 93.0465 115.722 93.0465 114.529ZM94.7965 114.529C94.7965 115.709 94.9431 116.692 95.2365 117.479C95.5298 118.259 95.9198 118.842 96.4065 119.229C96.8998 119.616 97.4431 119.809 98.0365 119.809C98.6298 119.809 99.1698 119.616 99.6565 119.229C100.143 118.842 100.533 118.259 100.826 117.479C101.12 116.692 101.266 115.709 101.266 114.529C101.266 113.362 101.12 112.389 100.826 111.609C100.533 110.822 100.143 110.229 99.6565 109.829C99.1698 109.429 98.6298 109.229 98.0365 109.229C97.4431 109.229 96.8998 109.429 96.4065 109.829C95.9198 110.229 95.5298 110.822 95.2365 111.609C94.9431 112.389 94.7965 113.362 94.7965 114.529ZM109.648 114.529C109.648 113.356 109.788 112.339 110.068 111.479C110.355 110.619 110.735 109.909 111.208 109.349C111.688 108.782 112.221 108.362 112.808 108.089C113.401 107.816 114.011 107.679 114.638 107.679C115.265 107.679 115.875 107.816 116.468 108.089C117.061 108.362 117.591 108.782 118.058 109.349C118.531 109.909 118.905 110.619 119.178 111.479C119.458 112.339 119.598 113.356 119.598 114.529C119.598 115.722 119.458 116.752 119.178 117.619C118.905 118.479 118.531 119.186 118.058 119.739C117.591 120.286 117.061 120.692 116.468 120.959C115.875 121.226 115.265 121.359 114.638 121.359C114.011 121.359 113.401 121.226 112.808 120.959C112.221 120.692 111.688 120.286 111.208 119.739C110.735 119.186 110.355 118.479 110.068 117.619C109.788 116.752 109.648 115.722 109.648 114.529ZM111.398 114.529C111.398 115.709 111.545 116.692 111.838 117.479C112.131 118.259 112.521 118.842 113.008 119.229C113.501 119.616 114.045 119.809 114.638 119.809C115.231 119.809 115.771 119.616 116.258 119.229C116.745 118.842 117.135 118.259 117.428 117.479C117.721 116.692 117.868 115.709 117.868 114.529C117.868 113.362 117.721 112.389 117.428 111.609C117.135 110.822 116.745 110.229 116.258 109.829C115.771 109.429 115.231 109.229 114.638 109.229C114.045 109.229 113.501 109.429 113.008 109.829C112.521 110.229 112.131 110.822 111.838 111.609C111.545 112.389 111.398 113.362 111.398 114.529ZM121.269 114.529C121.269 113.356 121.409 112.339 121.689 111.479C121.976 110.619 122.356 109.909 122.829 109.349C123.309 108.782 123.842 108.362 124.429 108.089C125.022 107.816 125.632 107.679 126.259 107.679C126.886 107.679 127.496 107.816 128.089 108.089C128.682 108.362 129.212 108.782 129.679 109.349C130.152 109.909 130.526 110.619 130.799 111.479C131.079 112.339 131.219 113.356 131.219 114.529C131.219 115.722 131.079 116.752 130.799 117.619C130.526 118.479 130.152 119.186 129.679 119.739C129.212 120.286 128.682 120.692 128.089 120.959C127.496 121.226 126.886 121.359 126.259 121.359C125.632 121.359 125.022 121.226 124.429 120.959C123.842 120.692 123.309 120.286 122.829 119.739C122.356 119.186 121.976 118.479 121.689 117.619C121.409 116.752 121.269 115.722 121.269 114.529ZM123.019 114.529C123.019 115.709 123.166 116.692 123.459 117.479C123.752 118.259 124.142 118.842 124.629 119.229C125.122 119.616 125.666 119.809 126.259 119.809C126.852 119.809 127.392 119.616 127.879 119.229C128.366 118.842 128.756 118.259 129.049 117.479C129.342 116.692 129.489 115.709 129.489 114.529C129.489 113.362 129.342 112.389 129.049 111.609C128.756 110.822 128.366 110.229 127.879 109.829C127.392 109.429 126.852 109.229 126.259 109.229C125.666 109.229 125.122 109.429 124.629 109.829C124.142 110.229 123.752 110.822 123.459 111.609C123.166 112.389 123.019 113.362 123.019 114.529ZM132.89 114.529C132.89 113.356 133.03 112.339 133.31 111.479C133.597 110.619 133.977 109.909 134.45 109.349C134.93 108.782 135.464 108.362 136.05 108.089C136.644 107.816 137.254 107.679 137.88 107.679C138.507 107.679 139.117 107.816 139.71 108.089C140.304 108.362 140.834 108.782 141.3 109.349C141.774 109.909 142.147 110.619 142.42 111.479C142.7 112.339 142.84 113.356 142.84 114.529C142.84 115.722 142.7 116.752 142.42 117.619C142.147 118.479 141.774 119.186 141.3 119.739C140.834 120.286 140.304 120.692 139.71 120.959C139.117 121.226 138.507 121.359 137.88 121.359C137.254 121.359 136.644 121.226 136.05 120.959C135.464 120.692 134.93 120.286 134.45 119.739C133.977 119.186 133.597 118.479 133.31 117.619C133.03 116.752 132.89 115.722 132.89 114.529ZM134.64 114.529C134.64 115.709 134.787 116.692 135.08 117.479C135.374 118.259 135.764 118.842 136.25 119.229C136.744 119.616 137.287 119.809 137.88 119.809C138.474 119.809 139.014 119.616 139.5 119.229C139.987 118.842 140.377 118.259 140.67 117.479C140.964 116.692 141.11 115.709 141.11 114.529C141.11 113.362 140.964 112.389 140.67 111.609C140.377 110.822 139.987 110.229 139.5 109.829C139.014 109.429 138.474 109.229 137.88 109.229C137.287 109.229 136.744 109.429 136.25 109.829C135.764 110.229 135.374 110.822 135.08 111.609C134.787 112.389 134.64 113.362 134.64 114.529ZM149.492 114.529C149.492 113.356 149.632 112.339 149.912 111.479C150.198 110.619 150.578 109.909 151.052 109.349C151.532 108.782 152.065 108.362 152.652 108.089C153.245 107.816 153.855 107.679 154.482 107.679C155.108 107.679 155.718 107.816 156.312 108.089C156.905 108.362 157.435 108.782 157.902 109.349C158.375 109.909 158.748 110.619 159.022 111.479C159.302 112.339 159.442 113.356 159.442 114.529C159.442 115.722 159.302 116.752 159.022 117.619C158.748 118.479 158.375 119.186 157.902 119.739C157.435 120.286 156.905 120.692 156.312 120.959C155.718 121.226 155.108 121.359 154.482 121.359C153.855 121.359 153.245 121.226 152.652 120.959C152.065 120.692 151.532 120.286 151.052 119.739C150.578 119.186 150.198 118.479 149.912 117.619C149.632 116.752 149.492 115.722 149.492 114.529ZM151.242 114.529C151.242 115.709 151.388 116.692 151.682 117.479C151.975 118.259 152.365 118.842 152.852 119.229C153.345 119.616 153.888 119.809 154.482 119.809C155.075 119.809 155.615 119.616 156.102 119.229C156.588 118.842 156.978 118.259 157.272 117.479C157.565 116.692 157.712 115.709 157.712 114.529C157.712 113.362 157.565 112.389 157.272 111.609C156.978 110.822 156.588 110.229 156.102 109.829C155.615 109.429 155.075 109.229 154.482 109.229C153.888 109.229 153.345 109.429 152.852 109.829C152.365 110.229 151.975 110.822 151.682 111.609C151.388 112.389 151.242 113.362 151.242 114.529ZM161.113 114.529C161.113 113.356 161.253 112.339 161.533 111.479C161.82 110.619 162.2 109.909 162.673 109.349C163.153 108.782 163.686 108.362 164.273 108.089C164.866 107.816 165.476 107.679 166.103 107.679C166.73 107.679 167.34 107.816 167.933 108.089C168.526 108.362 169.056 108.782 169.523 109.349C169.996 109.909 170.37 110.619 170.643 111.479C170.923 112.339 171.063 113.356 171.063 114.529C171.063 115.722 170.923 116.752 170.643 117.619C170.37 118.479 169.996 119.186 169.523 119.739C169.056 120.286 168.526 120.692 167.933 120.959C167.34 121.226 166.73 121.359 166.103 121.359C165.476 121.359 164.866 121.226 164.273 120.959C163.686 120.692 163.153 120.286 162.673 119.739C162.2 119.186 161.82 118.479 161.533 117.619C161.253 116.752 161.113 115.722 161.113 114.529ZM162.863 114.529C162.863 115.709 163.01 116.692 163.303 117.479C163.596 118.259 163.986 118.842 164.473 119.229C164.966 119.616 165.51 119.809 166.103 119.809C166.696 119.809 167.236 119.616 167.723 119.229C168.21 118.842 168.6 118.259 168.893 117.479C169.186 116.692 169.333 115.709 169.333 114.529C169.333 113.362 169.186 112.389 168.893 111.609C168.6 110.822 168.21 110.229 167.723 109.829C167.236 109.429 166.696 109.229 166.103 109.229C165.51 109.229 164.966 109.429 164.473 109.829C163.986 110.229 163.596 110.822 163.303 111.609C163.01 112.389 162.863 113.362 162.863 114.529Z" fill="#391713"/>
<path d="M305.936 142.461C307.165 142.461 308.16 143.313 308.16 144.365L308.16 166.827C308.16 167.878 307.165 168.73 305.936 168.73H280.074C278.846 168.73 277.85 167.878 277.85 166.827L277.85 144.365C277.85 143.313 278.846 142.461 280.074 142.461L305.936 142.461Z" fill="#E95322"/>
<path d="M298.856 142.461L298.856 168.73M277.85 149.576H284.028C285.393 149.576 286.499 150.556 286.499 151.765V168.73M298.856 149.028H308.123M298.856 155.596H308.123M298.856 162.163H308.123M277.85 162.163H286.499M277.85 156.69H286.499M277.85 144.365L277.85 166.827C277.85 167.878 278.846 168.73 280.074 168.73H305.936C307.165 168.73 308.16 167.878 308.16 166.827L308.16 144.365C308.16 143.313 307.165 142.461 305.936 142.461L280.074 142.461C278.846 142.461 277.85 143.313 277.85 144.365Z" stroke="#391713" stroke-linecap="round"/>
<path d="M255.622 18.1867C255.622 17.0707 256.466 16.166 257.508 16.166L305.264 16.166C306.306 16.166 307.15 17.0707 307.15 18.1867V26.2696C307.15 27.3857 306.306 28.2904 305.264 28.2904H257.508C256.466 28.2904 255.622 27.3857 255.622 26.2696V18.1867Z" stroke="#391713" stroke-width="2" stroke-linecap="round"/>
</svg>
