<svg width="210" height="262" viewBox="0 0 210 262" fill="none" xmlns="http://www.w3.org/2000/svg">
<path d="M35.5958 223.035L26.9536 239.797V247.603H20.0885V239.797L11.4463 223.035H19.2522L23.5733 232.513L27.8945 223.035H35.5958ZM44.3835 223.035V237.288C44.3835 238.612 44.6855 239.634 45.2895 240.354C45.9168 241.074 46.8577 241.434 48.1122 241.434C49.3667 241.434 50.3076 241.074 50.9349 240.354C51.5854 239.611 51.9106 238.589 51.9106 237.288V223.035H58.7408V237.288C58.7408 239.541 58.2646 241.469 57.3121 243.072C56.3595 244.652 55.0586 245.849 53.4091 246.662C51.7829 247.452 49.9708 247.846 47.9728 247.846C45.9749 247.846 44.186 247.452 42.6063 246.662C41.0497 245.849 39.8184 244.652 38.9124 243.072C38.0296 241.493 37.5882 239.564 37.5882 237.288V223.035H44.3835ZM91.1812 223.035V247.603H84.351V234.047L79.7162 247.603H74.0012L69.3316 233.942V247.603H62.5014V223.035H70.7603L76.9284 238.995L82.9571 223.035H91.1812Z" fill="#F5CB58"/>
<path d="M112.702 251.784L109.566 247.568C108.637 247.754 107.731 247.846 106.848 247.846C104.548 247.846 102.434 247.312 100.505 246.243C98.6004 245.175 97.0787 243.688 95.9404 241.783C94.8252 239.855 94.2677 237.694 94.2677 235.301C94.2677 232.908 94.8252 230.759 95.9404 228.854C97.0787 226.949 98.6004 225.463 100.505 224.394C102.434 223.325 104.548 222.791 106.848 222.791C109.148 222.791 111.25 223.325 113.155 224.394C115.083 225.463 116.594 226.949 117.685 228.854C118.801 230.759 119.358 232.908 119.358 235.301C119.358 237.392 118.928 239.309 118.069 241.051C117.232 242.77 116.059 244.199 114.549 245.337L119.916 251.784H112.702ZM100.366 235.301C100.366 237.462 100.947 239.193 102.108 240.494C103.293 241.771 104.873 242.41 106.848 242.41C108.799 242.41 110.356 241.76 111.517 240.459C112.702 239.158 113.295 237.439 113.295 235.301C113.295 233.141 112.702 231.422 111.517 230.144C110.356 228.843 108.799 228.192 106.848 228.192C104.873 228.192 103.293 228.831 102.108 230.109C100.947 231.387 100.366 233.117 100.366 235.301ZM128.596 223.139V237.775C128.596 239.239 128.956 240.366 129.676 241.156C130.396 241.946 131.453 242.341 132.847 242.341C134.241 242.341 135.31 241.946 136.053 241.156C136.797 240.366 137.168 239.239 137.168 237.775V223.139H143.127V237.741C143.127 239.924 142.663 241.771 141.733 243.281C140.804 244.791 139.55 245.93 137.97 246.696C136.413 247.463 134.671 247.846 132.743 247.846C130.814 247.846 129.084 247.475 127.55 246.731C126.04 245.965 124.844 244.826 123.961 243.316C123.078 241.783 122.637 239.924 122.637 237.741V223.139H128.596ZM153.271 223.139V247.603H147.312V223.139H153.271ZM156.579 235.336C156.579 232.92 157.101 230.771 158.147 228.889C159.192 226.984 160.644 225.509 162.503 224.464C164.385 223.395 166.51 222.861 168.88 222.861C171.784 222.861 174.27 223.627 176.337 225.161C178.405 226.694 179.787 228.785 180.484 231.433H173.933C173.445 230.411 172.748 229.633 171.842 229.098C170.959 228.564 169.949 228.297 168.81 228.297C166.975 228.297 165.488 228.936 164.35 230.213C163.211 231.491 162.642 233.199 162.642 235.336C162.642 237.473 163.211 239.181 164.35 240.459C165.488 241.736 166.975 242.375 168.81 242.375C169.949 242.375 170.959 242.108 171.842 241.574C172.748 241.04 173.445 240.261 173.933 239.239H180.484C179.787 241.887 178.405 243.978 176.337 245.512C174.27 247.022 171.784 247.777 168.88 247.777C166.51 247.777 164.385 247.254 162.503 246.209C160.644 245.14 159.192 243.665 158.147 241.783C157.101 239.901 156.579 237.752 156.579 235.336ZM198.317 247.603L190.092 236.8V247.603H184.133V223.139H190.092V233.872L198.247 223.139H205.251L195.773 235.127L205.6 247.603H198.317Z" fill="#F8F8F8"/>
<path d="M191.573 95.0341C205.451 80.2062 209.851 57.2115 202.429 38.3076C195.007 19.4036 176.137 5.54541 155.878 4.12056C125.171 1.96058 93.2106 31.0723 91.9393 61.8316C91.6283 69.354 93.6982 77.8855 100.238 81.6159C106.325 85.0879 114.633 82.866 119.199 77.5503C123.765 72.2347 124.914 64.5728 123.475 57.7145C122.036 50.8562 118.293 44.6905 113.995 39.1558C99.4869 20.4732 79.3632 2.34508 54.1217 4.12056C33.8632 5.54577 14.9931 19.4036 7.57087 38.3076C0.148613 57.2115 4.54928 80.2062 18.4266 95.0341" stroke="#F5CB58" stroke-width="6.18942" stroke-miterlimit="10" stroke-linecap="round" stroke-linejoin="round"/>
<path d="M133.79 159.779L113.257 179.754C108.738 184.15 101.496 183.986 97.1812 179.389C91.3888 173.217 83.5972 165.025 78.2056 159.779" stroke="#F5CB58" stroke-width="6.18942" stroke-miterlimit="10" stroke-linecap="round" stroke-linejoin="round"/>
<path d="M60.1721 140.632C68.6964 132.69 66.608 116.594 55.5075 104.679C44.407 92.7642 28.498 89.5435 19.9737 97.4853C11.4494 105.427 13.5378 121.524 24.6383 133.439C35.7388 145.353 51.6478 148.574 60.1721 140.632Z" stroke="#F5CB58" stroke-width="6.18942" stroke-miterlimit="10" stroke-linecap="round" stroke-linejoin="round"/>
<path d="M187.221 101.035L158.85 134.015" stroke="#F5CB58" stroke-width="6.18942" stroke-miterlimit="10" stroke-linecap="round" stroke-linejoin="round"/>
<path d="M147.73 119.117L169.102 96.4805C179.807 86.9033 205.789 106.548 194.144 121.745L172.982 144.16" stroke="#F5CB58" stroke-width="6.18942" stroke-miterlimit="10" stroke-linecap="round" stroke-linejoin="round"/>
</svg>
