<svg width="19" height="39" viewBox="0 0 19 39" fill="none" xmlns="http://www.w3.org/2000/svg">
<path d="M4.90236 25.6019C4.0929 27.6432 3.47546 29.7631 3.05895 31.9314C2.76708 33.5502 2.53665 36.2215 3.87311 37.3871C4.14096 37.6579 4.47243 37.8486 4.83344 37.9396C5.19445 38.0306 5.57195 38.0186 5.9271 37.9048C6.28225 37.7911 6.60222 37.5796 6.8541 37.2922C7.10598 37.0049 7.2807 36.6523 7.36022 36.2702C7.55992 34.878 7.17584 28.6776 7.12976 27.0749C7.12976 26.0227 7.12976 24.9542 7.12976 23.8372C7.12976 17.8475 6.93008 7.87582 6.91472 1.88613C6.90221 1.70469 6.8408 1.5305 6.7377 1.38459C6.6346 1.23869 6.49407 1.12711 6.33271 1.06249C6.17134 0.997867 5.99581 0.982876 5.82678 1.0198C5.65775 1.05673 5.50225 1.14387 5.37856 1.27077C1.38455 6.3701 -0.320594 13.0075 2.15262 19.2886C2.57031 20.4266 3.24917 21.4376 4.12846 22.2314C5.00775 23.0253 6.06004 23.5769 7.19122 23.8372M13.6585 16.7793C13.4741 20.276 12.7675 23.7078 12.3066 27.1721C11.8921 29.3899 11.6914 31.646 11.7075 33.9063C11.8304 35.6385 12.4296 37.9696 14.4573 37.9858C15.013 38.0035 15.5569 37.8146 15.9934 37.4519C16.4822 36.9318 16.8182 36.2739 16.9612 35.5575C17.2053 34.4988 17.2934 33.4068 17.2223 32.3199C17.2223 30.5877 16.8383 28.9043 16.6079 27.2045C16.147 23.7402 15.4404 20.3084 15.2561 16.8117M13.0747 1.62682V9.721M15.9012 9.67239V1.57821M10.5708 1.62682V12.716C10.5748 13.8009 10.9856 14.8403 11.7136 15.6075C12.4416 16.3746 13.4278 16.8074 14.4573 16.8117C15.4868 16.8074 16.473 16.3746 17.201 15.6075C17.9289 14.8403 18.3397 13.8009 18.3437 12.716V1.62682" stroke="#E95322" stroke-linecap="round" stroke-linejoin="round"/>
</svg>
