<svg width="210" height="262" viewBox="0 0 210 262" fill="none" xmlns="http://www.w3.org/2000/svg">
<path d="M35.5958 223.035L26.9536 239.797V247.603H20.0885V239.797L11.4463 223.035H19.2522L23.5733 232.513L27.8945 223.035H35.5958ZM44.3835 223.035V237.288C44.3835 238.612 44.6855 239.634 45.2895 240.354C45.9168 241.074 46.8577 241.434 48.1122 241.434C49.3667 241.434 50.3076 241.074 50.9349 240.354C51.5854 239.611 51.9106 238.589 51.9106 237.288V223.035H58.7408V237.288C58.7408 239.541 58.2646 241.469 57.3121 243.072C56.3595 244.652 55.0586 245.849 53.4091 246.662C51.7829 247.452 49.9708 247.846 47.9728 247.846C45.9749 247.846 44.186 247.452 42.6063 246.662C41.0497 245.849 39.8184 244.652 38.9124 243.072C38.0296 241.493 37.5882 239.564 37.5882 237.288V223.035H44.3835ZM91.1812 223.035V247.603H84.351V234.047L79.7162 247.603H74.0012L69.3316 233.942V247.603H62.5014V223.035H70.7603L76.9284 238.995L82.9571 223.035H91.1812Z" fill="#FF642F"/>
<path d="M111.901 251.715L109.183 247.637C108.416 247.777 107.638 247.846 106.848 247.846C104.548 247.846 102.434 247.312 100.505 246.243C98.5772 245.152 97.0439 243.653 95.9055 241.748C94.7904 239.82 94.2328 237.648 94.2328 235.232C94.2328 232.815 94.7904 230.655 95.9055 228.75C97.0439 226.822 98.5772 225.323 100.505 224.254C102.434 223.186 104.548 222.651 106.848 222.651C109.171 222.651 111.285 223.186 113.19 224.254C115.118 225.323 116.64 226.822 117.755 228.75C118.87 230.655 119.428 232.815 119.428 235.232C119.428 237.253 119.021 239.123 118.208 240.842C117.395 242.538 116.28 243.955 114.863 245.093L120.055 251.715H111.901ZM101.202 235.232C101.202 237.16 101.702 238.693 102.701 239.831C103.7 240.947 105.082 241.504 106.848 241.504C108.59 241.504 109.961 240.935 110.96 239.797C111.982 238.658 112.493 237.137 112.493 235.232C112.493 233.28 111.982 231.747 110.96 230.632C109.961 229.493 108.59 228.924 106.848 228.924C105.082 228.924 103.7 229.493 102.701 230.632C101.702 231.747 101.202 233.28 101.202 235.232ZM129.223 223.035V237.288C129.223 238.612 129.525 239.634 130.129 240.354C130.756 241.074 131.697 241.434 132.952 241.434C134.206 241.434 135.147 241.074 135.774 240.354C136.425 239.611 136.75 238.589 136.75 237.288V223.035H143.58V237.288C143.58 239.541 143.104 241.469 142.152 243.072C141.199 244.652 139.898 245.849 138.249 246.662C136.622 247.452 134.81 247.846 132.812 247.846C130.814 247.846 129.026 247.452 127.446 246.662C125.889 245.849 124.658 244.652 123.752 243.072C122.869 241.493 122.428 239.564 122.428 237.288V223.035H129.223ZM154.171 223.035V247.603H147.341V223.035H154.171ZM157.224 235.266C157.224 232.85 157.724 230.701 158.723 228.82C159.745 226.915 161.185 225.439 163.044 224.394C164.903 223.325 167.04 222.791 169.456 222.791C172.523 222.791 175.101 223.616 177.192 225.265C179.283 226.891 180.631 229.11 181.235 231.921H173.882C173.44 230.992 172.825 230.283 172.035 229.795C171.268 229.307 170.374 229.063 169.351 229.063C167.772 229.063 166.506 229.633 165.553 230.771C164.624 231.886 164.159 233.385 164.159 235.266C164.159 237.171 164.624 238.693 165.553 239.831C166.506 240.947 167.772 241.504 169.351 241.504C170.374 241.504 171.268 241.26 172.035 240.772C172.825 240.284 173.44 239.576 173.882 238.647H181.235C180.631 241.458 179.283 243.688 177.192 245.337C175.101 246.964 172.523 247.777 169.456 247.777C167.04 247.777 164.903 247.254 163.044 246.209C161.185 245.14 159.745 243.665 158.723 241.783C157.724 239.878 157.224 237.706 157.224 235.266ZM199 247.603L191.299 236.835V247.603H184.469V223.035H191.299V233.629L198.931 223.035H206.806L197.781 234.953L207.259 247.603H199Z" fill="#F8F8F8"/>
<path d="M191.573 95.0341C205.451 80.2062 209.851 57.2115 202.429 38.3076C195.007 19.4036 176.137 5.54541 155.878 4.12056C125.171 1.96058 93.2106 31.0723 91.9393 61.8316C91.6283 69.354 93.6982 77.8855 100.238 81.6159C106.325 85.0879 114.633 82.866 119.199 77.5503C123.765 72.2347 124.914 64.5728 123.475 57.7145C122.036 50.8562 118.293 44.6905 113.995 39.1558C99.4869 20.4732 79.3632 2.34508 54.1217 4.12056C33.8632 5.54577 14.9931 19.4036 7.57087 38.3076C0.148613 57.2115 4.54928 80.2062 18.4266 95.0341" stroke="#FF642F" stroke-width="6.18942" stroke-miterlimit="10" stroke-linecap="round" stroke-linejoin="round"/>
<path d="M133.79 159.779L113.257 179.754C108.738 184.15 101.496 183.986 97.1812 179.389C91.3888 173.217 83.5972 165.025 78.2056 159.779" stroke="#FF642F" stroke-width="6.18942" stroke-miterlimit="10" stroke-linecap="round" stroke-linejoin="round"/>
<path d="M60.1721 140.632C68.6964 132.69 66.608 116.594 55.5075 104.679C44.407 92.7642 28.498 89.5435 19.9737 97.4853C11.4494 105.427 13.5378 121.524 24.6383 133.439C35.7388 145.353 51.6478 148.574 60.1721 140.632Z" stroke="#FF642F" stroke-width="6.18942" stroke-miterlimit="10" stroke-linecap="round" stroke-linejoin="round"/>
<path d="M187.221 101.035L158.85 134.015" stroke="#FF642F" stroke-width="6.18942" stroke-miterlimit="10" stroke-linecap="round" stroke-linejoin="round"/>
<path d="M147.73 119.117L169.102 96.4805C179.807 86.9033 205.789 106.548 194.144 121.745L172.982 144.16" stroke="#FF642F" stroke-width="6.18942" stroke-miterlimit="10" stroke-linecap="round" stroke-linejoin="round"/>
</svg>
