<?xml version="1.0" encoding="UTF-8" standalone="no"?>
<!-- Created with Inkscape (http://www.inkscape.org/) -->

<svg
   version="1.1"
   id="svg2"
   width="959.27069"
   height="627.86536"
   viewBox="0 0 959.27069 627.86536"
   sodipodi:docname="Zalopay_logo.ai"
   xmlns:inkscape="http://www.inkscape.org/namespaces/inkscape"
   xmlns:sodipodi="http://sodipodi.sourceforge.net/DTD/sodipodi-0.dtd"
   xmlns="http://www.w3.org/2000/svg"
   xmlns:svg="http://www.w3.org/2000/svg">
  <defs
     id="defs6">
    <clipPath
       clipPathUnits="userSpaceOnUse"
       id="clipPath18">
      <path
         d="M 0,470.899 H 719.453 V 0 H 0 Z"
         id="path16" />
    </clipPath>
  </defs>
  <sodipodi:namedview
     id="namedview4"
     pagecolor="#ffffff"
     bordercolor="#000000"
     borderopacity="0.25"
     inkscape:showpageshadow="2"
     inkscape:pageopacity="0.0"
     inkscape:pagecheckerboard="0"
     inkscape:deskcolor="#d1d1d1" />
  <g
     id="g8"
     inkscape:groupmode="layer"
     inkscape:label="Zalopay_logo"
     transform="matrix(1.3333333,0,0,-1.3333333,0,627.86533)">
    <path
       d="M 0,0 H 719.453 V 470.899 H 0 Z"
       style="fill:#ffffff;fill-opacity:1;fill-rule:nonzero;stroke:none"
       id="path10" />
    <g
       id="g12">
      <g
         id="g14"
         clip-path="url(#clipPath18)">
        <g
           id="g20"
           transform="translate(174.6314,278.3883)">
          <path
             d="m 0,0 c 2.079,2.773 2.408,6.424 0.857,9.524 -1.551,3.1 -4.668,5.027 -8.135,5.027 H -68.713 V -3.174 h 44.177 l -42.149,-56.199 c -2.078,-2.773 -2.406,-6.422 -0.856,-9.521 1.55,-3.099 4.666,-5.024 8.132,-5.024 h 61.44 v 17.725 h -44.175 z"
             style="fill:#0033c9;fill-opacity:1;fill-rule:nonzero;stroke:none"
             id="path22" />
        </g>
        <g
           id="g24"
           transform="translate(334.9616,222.1949)">
          <path
             d="m 0,0 c -9.741,0 -17.666,7.926 -17.666,17.666 0,9.741 7.925,17.667 17.666,17.667 9.741,0 17.666,-7.926 17.666,-17.667 C 17.666,7.926 9.741,0 0,0 m 0,53.058 c -19.514,0 -35.391,-15.876 -35.391,-35.392 0,-19.514 15.877,-35.391 35.391,-35.391 19.515,0 35.392,15.877 35.392,35.391 0,19.516 -15.877,35.392 -35.392,35.392"
             style="fill:#0033c9;fill-opacity:1;fill-rule:nonzero;stroke:none"
             id="path26" />
        </g>
        <g
           id="g28"
           transform="translate(418.9054,222.1949)">
          <path
             d="m 0,0 c -9.741,0 -17.667,7.926 -17.667,17.666 0,9.741 7.926,17.667 17.667,17.667 9.741,0 17.666,-7.926 17.666,-17.667 C 17.666,7.926 9.741,0 0,0 m 0,53.058 c -19.515,0 -35.392,-15.876 -35.392,-35.392 v -61.9 h 17.725 v 31.28 c 5.206,-3.016 11.229,-4.771 17.667,-4.771 19.515,0 35.391,15.877 35.391,35.391 0,19.516 -15.876,35.392 -35.391,35.392"
             style="fill:#00cf6a;fill-opacity:1;fill-rule:nonzero;stroke:none"
             id="path30" />
        </g>
        <g
           id="g32"
           transform="translate(594.2479,275.2331)">
          <path
             d="M 0,0 -18.845,-43.977 -36.749,0 H -55.89 l 27.228,-66.882 -13.023,-30.391 h 19.283 L 19.286,0 Z"
             style="fill:#00cf6a;fill-opacity:1;fill-rule:nonzero;stroke:none"
             id="path34" />
        </g>
        <g
           id="g36"
           transform="translate(496.2498,222.1951)">
          <path
             d="m 0,0 c -9.736,0 -17.628,7.892 -17.628,17.628 0,9.736 7.892,17.628 17.628,17.628 9.735,0 17.627,-7.892 17.628,-17.626 V 17.628 17.626 C 17.627,7.892 9.735,0 0,0 m 35.378,0.005 v 53.053 h -17.75 v -6.466 c -5.465,4.009 -12.102,6.379 -19.276,6.379 -18.61,0 -33.695,-15.824 -33.695,-35.343 0,-19.52 15.085,-35.343 33.695,-35.343 8.709,0 16.62,3.496 22.601,9.184 3.626,-5.53 9.871,-9.189 16.978,-9.192 l 6.272,-0.002 v 17.73 z"
             style="fill:#00cf6a;fill-opacity:1;fill-rule:nonzero;stroke:none"
             id="path38" />
        </g>
        <g
           id="g40"
           transform="translate(218.6358,222.1951)">
          <path
             d="m 0,0 c -9.736,0 -17.628,7.892 -17.628,17.628 0,9.736 7.892,17.628 17.628,17.628 9.735,0 17.627,-7.892 17.628,-17.626 V 17.628 17.626 C 17.627,7.892 9.735,0 0,0 m 35.378,0.005 v 53.053 h -17.75 v -6.466 c -5.465,4.009 -12.102,6.379 -19.276,6.379 -18.61,0 -33.695,-15.824 -33.695,-35.343 0,-19.52 15.085,-35.343 33.695,-35.343 8.709,0 16.62,3.496 22.601,9.184 3.626,-5.53 9.871,-9.189 16.978,-9.192 l 6.272,-0.002 v 17.73 z"
             style="fill:#0033c9;fill-opacity:1;fill-rule:nonzero;stroke:none"
             id="path42" />
        </g>
        <g
           id="g44"
           transform="translate(287.3083,222.211)">
          <path
             d="M 0,0 V 70.728 H -17.76 V 2.584 c 0,-11.221 9.094,-20.318 20.314,-20.322 l 6.335,-0.003 V 0 Z"
             style="fill:#0033c9;fill-opacity:1;fill-rule:nonzero;stroke:none"
             id="path46" />
        </g>
      </g>
    </g>
  </g>
</svg>
