<svg width="38" height="38" viewBox="0 0 38 38" fill="none" xmlns="http://www.w3.org/2000/svg">
<path d="M19.0001 25.3334C20.6798 25.3334 22.2907 24.6662 23.4784 23.4784C24.6662 22.2907 25.3334 20.6798 25.3334 19.0001C25.3334 17.3204 24.6662 15.7095 23.4784 14.5217C22.2907 13.334 20.6798 12.6667 19.0001 12.6667C17.3204 12.6667 15.7095 13.334 14.5217 14.5217C13.334 15.7095 12.6667 17.3204 12.6667 19.0001C12.6667 20.6798 13.334 22.2907 14.5217 23.4784C15.7095 24.6662 17.3204 25.3334 19.0001 25.3334Z" stroke="#E95322" stroke-width="2" stroke-linecap="round" stroke-linejoin="round"/>
<path d="M4.75 25.3333V12.6667C4.75 10.567 5.58407 8.5534 7.06874 7.06874C8.5534 5.58407 10.567 4.75 12.6667 4.75H25.3333C27.433 4.75 29.4466 5.58407 30.9313 7.06874C32.4159 8.5534 33.25 10.567 33.25 12.6667V25.3333C33.25 27.433 32.4159 29.4466 30.9313 30.9313C29.4466 32.4159 27.433 33.25 25.3333 33.25H12.6667C10.567 33.25 8.5534 32.4159 7.06874 30.9313C5.58407 29.4466 4.75 27.433 4.75 25.3333Z" stroke="#E95322" stroke-width="2"/>
<path d="M27.7083 10.3079L27.7245 10.29" stroke="#E95322" stroke-width="2" stroke-linecap="round" stroke-linejoin="round"/>
</svg>
