<svg width="39" height="38" viewBox="0 0 39 38" fill="none" xmlns="http://www.w3.org/2000/svg">
<path d="M14.3637 19.2259H31.7303M24.792 19.2259V22.632M29.3476 19.2259V24.4794M11.3302 13.437C13.0084 13.437 14.3689 14.7975 14.3689 16.4758V21.976C14.3689 23.6543 13.0084 25.0148 11.3302 25.0148C9.65192 25.0148 8.29142 23.6543 8.29142 21.976V16.4758C8.29142 14.7975 9.65192 13.437 11.3302 13.437ZM19.6592 36.435C19.6592 36.435 31.809 37.3272 36.0706 26.1011C37.7343 21.6686 37.7343 16.7832 36.0706 12.3506C31.809 1.12454 19.6592 2.01678 19.6592 2.01678C19.6592 2.01678 7.50937 1.12454 3.24775 12.3506C1.58408 16.7832 1.58408 21.6686 3.24775 26.1011C7.50937 37.3272 19.6592 36.435 19.6592 36.435Z" stroke="#E95322" stroke-width="2.62415" stroke-linecap="round" stroke-linejoin="round"/>
</svg>
