<svg width="38" height="37" viewBox="0 0 38 37" fill="none" xmlns="http://www.w3.org/2000/svg">
<path d="M16.5175 28.1576C21.3853 31.9503 26.6328 33.1444 29.5974 30.6922C33.4724 27.4897 31.9764 19.2777 26.2485 12.3466L25.21 11.2714M21.1611 7.55194C16.5267 4.22592 11.6726 3.28347 8.86356 5.60299C4.98854 8.80548 6.48914 17.0175 12.2125 23.9486M26.2897 9.42765C30.2928 9.06165 33.3672 9.93088 34.3371 12.0445C36.007 15.7045 30.7366 21.6932 22.5611 25.431C14.3856 29.1687 6.40677 29.2328 4.7186 25.5774C3.03043 21.922 8.31911 15.9287 16.4946 12.191C17.84 11.574 19.2228 11.0422 20.635 10.5989M14.2529 34.677C14.5182 34.7365 14.7744 34.7914 15.0215 34.8372C16.3314 35.0969 17.6673 35.2013 19.0017 35.1483C19.0017 35.1483 30.6954 36.0084 34.7992 25.1977C36.4003 20.9311 36.4003 16.2288 34.7992 11.9622C30.6817 1.15612 19.0017 2.01622 19.0017 2.01622C19.0017 2.01622 7.30805 1.15612 3.20428 11.9622C1.59857 16.228 1.59857 20.9319 3.20428 25.1977C4.27382 28.1683 6.27703 30.7125 8.91386 32.4491C9.28443 32.6915 9.65959 32.9065 10.0393 33.1124M23.1192 11.2668C23.5496 11.2916 23.9771 11.1816 24.342 10.9519C24.7069 10.7223 24.9912 10.3846 25.1551 9.98579C25.361 9.43561 25.361 8.82951 25.1551 8.27933C24.9704 7.89623 24.6814 7.57299 24.3213 7.3468C23.9612 7.1206 23.5445 7.00066 23.1192 7.00066C22.6939 7.00066 22.2773 7.1206 21.9172 7.3468C21.557 7.57299 21.268 7.89623 21.0834 8.27933C20.8774 8.82951 20.8774 9.43561 21.0834 9.98579C21.2479 10.3841 21.5322 10.7215 21.897 10.9511C22.2618 11.1806 22.6889 11.2909 23.1192 11.2668ZM12.2307 35.5555C12.6611 35.5796 13.0882 35.4691 13.453 35.2396C13.8178 35.0101 14.1021 34.6728 14.2666 34.2745C14.4726 33.7243 14.4726 33.1182 14.2666 32.568C14.082 32.1849 13.793 31.8617 13.4328 31.6355C13.0727 31.4093 12.656 31.2893 12.2307 31.2893C11.8055 31.2893 11.3888 31.4093 11.0287 31.6355C10.6686 31.8617 10.3795 32.1849 10.1949 32.568C9.98892 33.1182 9.98892 33.7243 10.1949 34.2745C10.3588 34.6732 10.6431 35.0109 11.008 35.2405C11.3729 35.4701 11.8003 35.5802 12.2307 35.5555Z" stroke="#E95322" stroke-width="2.28749" stroke-linecap="round" stroke-linejoin="round"/>
</svg>
