<svg width="39" height="39" viewBox="0 0 39 39" fill="none" xmlns="http://www.w3.org/2000/svg">
<path d="M36.1332 25.5862C35.2639 27.7852 33.9517 29.7825 32.278 31.4548C29.52 34.2121 25.9093 35.9576 22.0324 36.4076C18.1555 36.8577 14.2401 35.9859 10.922 33.9339C10.7169 33.8009 10.4752 33.7356 10.2309 33.7472C9.98659 33.7588 9.75208 33.8468 9.56056 33.9987C7.95271 35.2933 3.79695 38.4003 2.37062 36.9762C0.9443 35.5522 4.00442 31.3447 5.30108 29.7265C5.44834 29.5351 5.53238 29.3027 5.54167 29.0615C5.55096 28.8204 5.48501 28.5823 5.35292 28.3801C3.18375 24.8985 2.32654 20.7598 2.93474 16.7048C3.54295 12.6498 5.57686 8.94336 8.67236 6.24893C11.8303 3.5089 15.8732 2 20.057 2C24.2407 2 28.2837 3.5089 31.4417 6.24893C33.2225 7.8069 34.6642 9.71322 35.6775 11.8499C36.6907 13.9866 37.2539 16.3081 37.3323 18.6709C37.4107 21.0336 37.0026 23.3873 36.1332 25.5862Z" stroke="#E95322" stroke-width="2.29" stroke-linecap="round" stroke-linejoin="round"/>
</svg>
