<svg width="28" height="39" viewBox="0 0 28 39" fill="none" xmlns="http://www.w3.org/2000/svg">
<path d="M15.8115 35.4106C15.7574 35.8647 15.5387 36.2832 15.1968 36.5868C14.8549 36.8904 14.4135 37.058 13.9562 37.058C13.4989 37.058 13.0576 36.8904 12.7157 36.5868C12.3738 36.2832 12.1551 35.8647 12.101 35.4106M2.6278 24.2475C3.44207 22.1865 3.74633 19.9593 3.51473 17.7554C3.41489 16.8505 3.43606 15.9361 3.57771 15.0367C4.0094 12.4661 5.33827 10.1318 7.3282 8.44817C9.31813 6.76455 11.8404 5.84068 14.447 5.84068C17.0536 5.84068 19.5758 6.76455 21.5657 8.44817C23.5557 10.1318 24.8845 12.4661 25.3162 15.0367C25.4578 15.9361 25.479 16.8505 25.3791 17.7554C25.1529 19.9592 25.4571 22.1851 26.2661 24.2475C26.5963 25.0268 26.7403 25.8723 26.6869 26.717C26.6334 27.5616 26.3839 28.3822 25.958 29.1136C25.5322 29.845 24.9418 30.4672 24.2337 30.9307C23.5256 31.3943 22.7192 31.6865 21.8785 31.7841C16.9413 32.3369 11.9578 32.3369 7.02062 31.7841C6.17996 31.6862 5.37364 31.3938 4.66549 30.9304C3.95733 30.4669 3.36677 29.8449 2.94057 29.1137C2.51438 28.3825 2.26425 27.5621 2.20996 26.7175C2.15567 25.8729 2.29873 25.0273 2.6278 24.2475ZM16.4098 3.95761C16.4098 5.03877 15.5333 5.91523 14.4522 5.91523C13.371 5.91523 12.4946 5.03877 12.4946 3.95761C12.4946 2.87645 13.371 2 14.4522 2C15.5333 2 16.4098 2.87645 16.4098 3.95761Z" stroke="#E95322" stroke-width="2.62415" stroke-linecap="round" stroke-linejoin="round"/>
</svg>
