<svg width="40" height="40" viewBox="0 0 40 40" fill="none" xmlns="http://www.w3.org/2000/svg">
<path d="M20.9332 34.7C20.6612 34.8953 20.3348 35.0004 19.9999 35.0004C19.665 35.0004 19.3386 34.8953 19.0665 34.7C11.0182 28.9633 2.47654 17.1633 11.1115 8.63667C13.4821 6.30475 16.6746 4.99854 19.9999 5C23.3332 5 26.5315 6.30833 28.8882 8.635C37.5232 17.1617 28.9815 28.96 20.9332 34.7Z" stroke="#E95322" stroke-width="2" stroke-linecap="round" stroke-linejoin="round"/>
<path d="M19.9998 19.9999C20.8839 19.9999 21.7317 19.6487 22.3569 19.0236C22.982 18.3985 23.3332 17.5506 23.3332 16.6666C23.3332 15.7825 22.982 14.9347 22.3569 14.3096C21.7317 13.6844 20.8839 13.3333 19.9998 13.3333C19.1158 13.3333 18.2679 13.6844 17.6428 14.3096C17.0177 14.9347 16.6665 15.7825 16.6665 16.6666C16.6665 17.5506 17.0177 18.3985 17.6428 19.0236C18.2679 19.6487 19.1158 19.9999 19.9998 19.9999Z" stroke="#E95322" stroke-width="2" stroke-linecap="round" stroke-linejoin="round"/>
</svg>
