<svg width="39" height="51" viewBox="0 0 39 51" fill="none" xmlns="http://www.w3.org/2000/svg">
<path d="M36.6938 37.9573C36.5394 37.6062 36.2584 37.3276 35.9078 37.178C33.5555 36.0286 31.8773 32.8829 31.8698 29.117C31.8698 25.82 33.1883 22.9616 35.1287 21.5551C35.2942 21.4316 35.4328 21.275 35.5358 21.0951C35.6387 20.9151 35.7038 20.7157 35.727 20.5092C35.7502 20.3027 35.731 20.0936 35.6706 19.895C35.6102 19.6963 35.5099 19.5124 35.3759 19.3546C33.2483 16.9045 30.2442 15.2636 27.0003 15.6871C25.0001 15.9517 23.292 17.3809 21.2543 17.6002C19.7485 17.759 18.5948 17.139 17.2838 16.5567C16.0472 15.971 14.7037 15.6505 13.3382 15.6153C11.9727 15.5802 10.6148 15.8312 9.35024 16.3525C-1.45259 20.9199 1.50652 36.2328 6.48841 44.0745C8.48117 47.258 12.0697 50.3584 15.9728 48.3772C17.7108 47.5076 19.4114 45.912 21.494 46.464C24.3933 47.2429 26.3486 50.1467 29.54 48.5889C33.7427 46.5245 35.9003 41.5639 36.7394 39.0685C36.8645 38.7057 36.8483 38.3084 36.6938 37.9573Z" stroke="#E95322" stroke-width="2.98" stroke-linecap="round" stroke-linejoin="round"/>
<path d="M20.2429 11.9666C20.2429 11.9666 17.7332 2.46128 26.9853 2C27.0078 2 29.6298 10.0988 20.2429 11.9666Z" stroke="#E95322" stroke-width="2.98" stroke-linecap="round" stroke-linejoin="round"/>
</svg>
