<svg width="40" height="28" viewBox="0 0 40 28" fill="none" xmlns="http://www.w3.org/2000/svg">
<path d="M7.62284 26.1811V14.3272C7.63224 11.0607 8.934 7.93068 11.2438 5.62092C13.5535 3.31116 16.6835 2.0094 19.95 2C23.2165 2.0094 26.3465 3.31116 28.6562 5.62092C30.966 7.93068 32.2678 11.0607 32.2772 14.3272V26.1608M14.4758 10.4045C15.0321 9.44506 15.8304 8.64842 16.791 8.09402C17.7516 7.53962 18.8409 7.24689 19.95 7.24519C21.0598 7.24702 22.1496 7.53968 23.111 8.09402C24.0724 8.64837 24.8718 9.44501 25.4293 10.4045M37.0238 16.0569C36.103 14.5866 34.2002 14.2305 32.562 14.1847H32.2772V26.2116C33.4769 26.2766 34.6728 26.0277 35.7469 25.4893C37.1205 24.6447 37.6598 22.9455 37.8226 21.4599C37.8788 20.9531 37.9077 20.4436 37.9091 19.9337C37.9827 18.584 37.676 17.2408 37.0238 16.0569ZM2.8914 16.0569C3.81734 14.5866 5.72011 14.2305 7.3583 14.1847H7.63808V26.2116C6.44003 26.2762 5.24589 26.0272 4.17348 25.4893C2.79984 24.6447 2.26052 22.9455 2.09771 21.4599C2.04151 20.9531 2.01268 20.4436 2.01127 19.9337C1.93579 18.5845 2.24074 17.2412 2.8914 16.0569Z" stroke="#E95322" stroke-width="2.54378" stroke-linecap="round" stroke-linejoin="round"/>
</svg>
