<svg width="40" height="40" viewBox="0 0 40 40" fill="none" xmlns="http://www.w3.org/2000/svg">
<path d="M8.33325 8.33325H29.9999C31.326 8.33325 32.5978 8.86004 33.5355 9.79772C34.4731 10.7354 34.9999 12.0072 34.9999 13.3333V28.3333C34.9999 29.6593 34.4731 30.9311 33.5355 31.8688C32.5978 32.8065 31.326 33.3333 29.9999 33.3333H8.33325C7.00717 33.3333 5.7354 32.8065 4.79772 31.8688C3.86004 30.9311 3.33325 29.6593 3.33325 28.3333V13.3333C3.33325 12.0072 3.86004 10.7354 4.79772 9.79772C5.7354 8.86004 7.00717 8.33325 8.33325 8.33325ZM8.33325 9.99992C7.49992 9.99992 6.76659 10.2833 6.19992 10.7833L19.1666 19.1666L32.1333 10.7833C31.5666 10.2833 30.8333 9.99992 29.9999 9.99992H8.33325ZM19.1666 21.1833L5.21659 12.1333C5.08325 12.4999 4.99992 12.9166 4.99992 13.3333V28.3333C4.99992 29.2173 5.35111 30.0652 5.97623 30.6903C6.60135 31.3154 7.4492 31.6666 8.33325 31.6666H29.9999C30.884 31.6666 31.7318 31.3154 32.3569 30.6903C32.9821 30.0652 33.3333 29.2173 33.3333 28.3333V13.3333C33.3333 12.9166 33.2499 12.4999 33.1166 12.1333L19.1666 21.1833Z" fill="#E95322"/>
</svg>
