<svg width="36" height="44" viewBox="0 0 36 44" fill="none" xmlns="http://www.w3.org/2000/svg">
<path d="M8.79938 37.0832L8.43905 39.2277C8.39135 39.5342 8.4106 39.8474 8.49541 40.1458C8.58023 40.4442 8.72864 40.7208 8.93048 40.9565C9.13231 41.1923 9.38278 41.3817 9.66475 41.5118C9.94672 41.6418 10.2535 41.7094 10.5641 41.71H15.2921C15.6424 41.7151 15.9831 41.595 16.2527 41.3715C16.5223 41.148 16.7032 40.8357 16.7627 40.4909L18.726 28.6963H25.1378C26.3535 28.6921 27.5551 28.4355 28.6662 27.9428C29.7774 27.4501 30.7738 26.7322 31.5925 25.8345C32.4111 24.9368 33.0339 23.8789 33.4215 22.7281C33.809 21.5772 33.9529 20.3584 33.8438 19.1491C33.7184 17.8091 33.2756 16.5182 32.5519 15.3829C31.8283 14.2477 30.8445 13.3007 29.682 12.6202M9.92436 37.0832C10.3062 37.0841 10.6756 36.9483 10.9657 36.7003C11.2558 36.4524 11.4472 36.1088 11.5053 35.7319L13.7112 21.7782H19.8142C21.2121 21.7741 22.5934 21.4752 23.8677 20.901C25.1419 20.3267 26.2803 19.4902 27.2084 18.4461C28.1365 17.4019 28.8334 16.1738 29.2533 14.842C29.6732 13.5103 29.8068 12.105 29.6452 10.7181C29.3102 8.28132 28.0956 6.05063 26.2298 4.44534C24.3639 2.84006 21.9752 1.97073 19.5127 2.00075H11.0347C9.95547 2.00132 8.9118 2.38612 8.09108 3.08604C7.27036 3.78596 6.72632 4.75516 6.55665 5.81964C6.55665 5.81964 3.44632 25.6926 2.14483 34.1382C2.08492 34.5009 2.10495 34.8722 2.20353 35.2263C2.30212 35.5804 2.47691 35.9088 2.71565 36.1885C2.95439 36.4682 3.25134 36.6925 3.58582 36.8458C3.9203 36.999 4.28425 37.0776 4.65224 37.0759L9.92436 37.0832ZM15.8877 7.57487H18.1524C19.2371 7.55487 20.2912 7.93475 21.1132 8.64194C21.9352 9.34913 22.4675 10.334 22.6083 11.4085C22.6776 12.0176 22.6175 12.6344 22.432 13.2188C22.2465 13.8032 21.9399 14.3419 21.5319 14.7999C21.124 15.258 20.6239 15.625 20.0645 15.8771C19.505 16.1291 18.8985 16.2606 18.2848 16.2629H14.5421L15.8877 7.57487Z" stroke="#E95322" stroke-width="2.8" stroke-linecap="round" stroke-linejoin="round"/>
</svg>
