<svg width="41" height="41" viewBox="0 0 41 41" fill="none" xmlns="http://www.w3.org/2000/svg">
<rect y="0.325012" width="40.3" height="40.3" rx="20" fill="#F8F8F8"/>
<path d="M13.5408 22.8048C13.6699 23.3643 13.9898 23.8614 14.4456 24.2106C14.9014 24.5598 15.4646 24.7394 16.0384 24.7184H28.9171C29.4904 24.7392 30.0529 24.5595 30.508 24.2102C30.963 23.8609 31.2822 23.3639 31.4103 22.8048L32.5333 15.0919C32.6093 14.6996 32.5969 14.2953 32.4974 13.9083C32.3978 13.5213 32.2134 13.1612 31.9576 12.8542C31.7018 12.5473 31.3809 12.301 31.0182 12.1333C30.6554 11.9656 30.2601 11.8807 29.8605 11.8847H11.8293M13.5408 22.8048L11.8293 11.8847M13.5408 22.8048C13.5408 22.8048 14.0709 28.6175 19.8746 28.86H30.2693M11.8293 11.8847L11.3261 8.68175C11.2465 8.25227 11.0194 7.8641 10.6839 7.58439C10.3484 7.30469 9.92575 7.15106 9.48896 7.14999H7.80005M18.8055 31.0028C18.8055 32.1887 17.8442 33.15 16.6583 33.15C15.4724 33.15 14.5111 32.1887 14.5111 31.0028C14.5111 29.8169 15.4724 28.8556 16.6583 28.8556C17.8442 28.8556 18.8055 29.8169 18.8055 31.0028ZM32.4164 31.0028C32.4164 32.1887 31.4551 33.15 30.2692 33.15C29.0834 33.15 28.122 32.1887 28.122 31.0028C28.122 29.8169 29.0834 28.8556 30.2692 28.8556C31.4551 28.8556 32.4164 29.8169 32.4164 31.0028Z" stroke="#E95322" stroke-width="2" stroke-linecap="round" stroke-linejoin="round"/>
</svg>
