<svg width="26" height="26" viewBox="0 0 26 26" fill="none" xmlns="http://www.w3.org/2000/svg">
<rect width="26" height="26" rx="10" fill="#E95322"/>
<path d="M4.18797 15.9538H8.98504M15.9497 15.9538H20.7441M18.1173 9.90891H17.3432M6.42118 8.06626V6.43603M20.6182 10.8123L20.5972 10.7944C20.4375 10.1918 20.1511 9.62817 19.7563 9.13916C19.3615 8.65016 18.8668 8.24646 18.3036 7.95366C17.6966 7.655 17.054 7.43065 16.3906 7.2857L16.3591 7.07584C16.35 6.82477 16.2994 6.57676 16.2095 6.34134C16.1175 6.11283 15.9762 5.90633 15.795 5.73586C15.6139 5.5654 15.3972 5.43498 15.1598 5.35347C14.3529 5.09036 13.5038 4.97243 12.6537 5.00542H12.3073C11.4572 4.97243 10.608 5.09036 9.80118 5.35347C9.56349 5.43453 9.34659 5.56479 9.1654 5.73531C8.98421 5.90583 8.84302 6.11257 8.75149 6.34134C8.66398 6.56403 8.61433 6.79916 8.60452 7.03745L8.53629 7.29338C7.88405 7.43853 7.25228 7.66023 6.65475 7.95366C6.09197 8.24696 5.59759 8.65082 5.20284 9.13975C4.80809 9.62868 4.52153 10.1921 4.36118 10.7944L4.3428 10.8123C4.08736 11.7125 3.97496 12.6455 4.00952 13.5789C3.96358 14.5622 4.08416 15.5462 4.36641 16.4913C5.00934 18.8125 7.64668 19.6647 10.3103 19.9258H10.3837L10.6671 19.9514L10.885 19.9667H11.0188L11.2655 19.9821H11.3442L11.8035 20H13.1838L13.643 19.9821H13.7191L13.9815 19.9667H14.1154L14.3306 19.9514L14.614 19.9258H14.6875C17.3537 19.6699 19.991 18.8125 20.6313 16.4913C20.9145 15.5463 21.0359 14.5623 20.9908 13.5789C21.0114 12.6436 20.8857 11.7107 20.6182 10.8123ZM12.4674 17.5124C12.4674 17.5124 15.3908 17.7223 16.4037 15.0863C16.8051 14.0461 16.8051 12.8992 16.4037 11.8591C15.3776 9.22304 12.4674 9.43289 12.4674 9.43289C12.4674 9.43289 9.544 9.22304 8.53105 11.8591C8.12966 12.8992 8.12966 14.0461 8.53105 15.0863C9.544 17.7223 12.4674 17.5124 12.4674 17.5124ZM12.4674 14.9455C12.4674 14.9455 13.5328 15.0223 13.9081 14.0626C14.0524 13.6828 14.0524 13.2651 13.9081 12.8853C13.5328 11.923 12.4674 11.9998 12.4674 11.9998C12.4674 11.9998 11.4019 11.923 11.0267 12.8853C10.8798 13.2647 10.8798 13.6832 11.0267 14.0626C11.4019 15.0223 12.4674 14.9455 12.4674 14.9455Z" stroke="#F8F8F8" stroke-width="0.997761" stroke-linecap="round" stroke-linejoin="round"/>
</svg>
