<svg width="82" height="73" viewBox="0 0 82 73" fill="none" xmlns="http://www.w3.org/2000/svg">
<path d="M68.5044 24.2245V56.3952C68.5044 59.8674 67.1251 63.1973 64.6698 65.6525C62.2145 68.1078 58.8845 69.4873 55.4122 69.4873H49.8372V57.2571C49.8372 54.9133 48.9061 52.6653 47.2488 51.008C45.5915 49.3507 43.3438 48.4198 41 48.4198C38.6562 48.4198 36.4084 49.3507 34.7511 51.008C33.0938 52.6653 32.1628 54.9133 32.1628 57.2571V69.4873H26.5877C23.1154 69.4873 19.7854 68.1078 17.3301 65.6525C14.8749 63.1973 13.4955 59.8674 13.4955 56.3952V24.2246M79 35.7096L54.5831 8.99072C52.8595 7.10324 50.7614 5.59551 48.4227 4.56407C46.084 3.53262 43.556 3 41 3C38.444 3 35.916 3.53262 33.5773 4.56407C31.2386 5.59551 29.1405 7.10324 27.4169 8.99072L3 35.7096" stroke="#E95322" stroke-width="5.45506" stroke-linecap="round" stroke-linejoin="round"/>
</svg>
