<svg width="44" height="31" viewBox="0 0 44 31" fill="none" xmlns="http://www.w3.org/2000/svg">
<path d="M2 22.5811V23.2455C2.00153 24.8703 2.64806 26.4282 3.79756 27.5766C4.94707 28.7251 6.50557 29.3701 8.13044 29.3701H35.8645C37.4894 29.3701 39.0477 28.7251 40.1972 27.5766C41.3467 26.4282 41.9933 24.8703 41.9948 23.2455V8.13044C41.9948 7.32539 41.8363 6.5282 41.5282 5.78443C41.2201 5.04066 40.7685 4.36485 40.1992 3.79559C39.63 3.22633 38.9541 2.77472 38.2104 2.46664C37.4666 2.15855 36.6696 2 35.8645 2H8.13044C7.32539 2 6.5282 2.15855 5.78443 2.46664C5.04066 2.77472 4.36485 3.22633 3.79559 3.79559C3.22633 4.36485 2.77472 5.04066 2.46664 5.78443C2.15855 6.5282 2 7.32539 2 8.13044V22.5059M2.01156 8.60421H41.9775M7.62192 16.0173H10.9385M7.62192 21.7548H15.6417M26.0882 21.7548H29.3758M33.5013 21.7548H36.7889" stroke="#E95322" stroke-width="2.88896" stroke-linecap="round" stroke-linejoin="round"/>
</svg>
