<svg width="27" height="39" viewBox="0 0 27 39" fill="none" xmlns="http://www.w3.org/2000/svg">
<path d="M13.9221 13.8087C17.183 13.8087 19.8265 11.1652 19.8265 7.90433C19.8265 4.64346 17.183 2 13.9221 2C10.6613 2 8.0178 4.64346 8.0178 7.90433C8.0178 11.1652 10.6613 13.8087 13.9221 13.8087Z" stroke="#E95322" stroke-width="2.62415" stroke-linecap="round" stroke-linejoin="round"/>
<path d="M24.7913 31.0545C21.9572 37.4207 13.8854 36.8959 13.8854 36.8959C13.8854 36.8959 5.80831 37.3997 2.97948 31.0545C2.43199 29.8339 2.14893 28.5112 2.14893 27.1734C2.14893 25.8356 2.43199 24.513 2.97948 23.2924C5.80831 16.9262 13.8854 17.451 13.8854 17.451C13.8854 17.451 21.9572 16.9472 24.7913 23.2924C25.3388 24.513 25.6218 25.8356 25.6218 27.1734C25.6218 28.5112 25.3388 29.8339 24.7913 31.0545Z" stroke="#E95322" stroke-width="2.62415" stroke-linecap="round" stroke-linejoin="round"/>
</svg>
