<svg width="39" height="39" viewBox="0 0 39 39" fill="none" xmlns="http://www.w3.org/2000/svg">
<path d="M21.9421 37.3418C21.9421 34.9321 21.9421 30.2735 21.9421 27.4373H26.3737C26.5867 27.4373 26.791 27.3526 26.9416 27.202C27.0923 27.0514 27.1769 26.8471 27.1769 26.634V21.726C27.1769 21.513 27.0923 21.3087 26.9416 21.1581C26.791 21.0075 26.5867 20.9228 26.3737 20.9228H21.9421C21.9421 19.0062 21.9421 19.2333 21.9421 18.0368C21.9436 17.5191 22.1503 17.0232 22.5168 16.6577C22.8834 16.2921 23.3799 16.0869 23.8976 16.0869H27.1492V11.0183C27.1478 10.6387 26.996 10.2752 26.7271 10.0073C26.4582 9.73946 26.0941 9.58908 25.7145 9.58908H21.654C20.8007 9.58908 19.9558 9.75715 19.1674 10.0837C18.3791 10.4102 17.6628 10.8889 17.0594 11.4922C16.4561 12.0956 15.9774 12.8119 15.6509 13.6003C15.3244 14.3886 15.1563 15.2336 15.1563 16.0869C15.1563 16.0869 15.0843 17.0286 15.0399 20.9228H10.7524C10.5144 20.9228 10.2861 21.0174 10.1179 21.1857C9.94956 21.354 9.85501 21.5822 9.85501 21.8202V26.5398C9.85428 26.6579 9.87699 26.7749 9.92182 26.8841C9.96666 26.9933 10.0327 27.0926 10.1162 27.1761C10.1996 27.2595 10.2989 27.3256 10.4081 27.3704C10.5173 27.4153 10.6344 27.438 10.7524 27.4373H14.99C14.99 30.2901 14.9901 34.3893 15.0676 36.9153M15.0787 36.8654C11.3178 35.8436 7.9985 33.6109 5.63429 30.5127C3.27009 27.4145 1.99279 23.6235 2.00003 19.7263C2.00003 15.025 3.8676 10.5162 7.19193 7.19192C10.5163 3.86759 15.025 2 19.7263 2C24.4276 2 28.9364 3.86759 32.2607 7.19192C35.5851 10.5162 37.4526 15.025 37.4526 19.7263C37.4555 24.0459 35.881 28.2178 33.0249 31.4584C30.1689 34.699 26.2278 36.7853 21.9421 37.3252" stroke="#E95322" stroke-width="2.29" stroke-linecap="round" stroke-linejoin="round"/>
</svg>
