<svg width="37" height="44" viewBox="0 0 37 44" fill="none" xmlns="http://www.w3.org/2000/svg">
<path d="M3.56674 3.65536C4.58652 2.62426 5.98064 2.02933 7.44584 2C11.7977 2 24.6785 10.9435 32.7519 17.2903C33.4503 17.839 34.0141 18.5343 34.4015 19.3251C34.7888 20.1158 34.9899 20.9817 34.9899 21.8588C34.9899 22.7359 34.7888 23.6018 34.4015 24.3925C34.0141 25.1832 33.4503 25.8786 32.7519 26.4273C24.6785 32.7815 11.7977 41.7101 7.44584 41.7101C5.98064 41.6808 4.58652 41.0859 3.56674 40.0548M3.56674 3.65536C2.54695 4.68647 1.98402 6.07035 2.00035 7.50599V36.2041C1.98402 37.6398 2.54695 39.0237 3.56674 40.0548M3.56674 3.65536L16.6783 16.1723L29.7899 28.6892M3.56674 40.0548L29.7899 15.0507" stroke="#E95322" stroke-width="2.8" stroke-linecap="round" stroke-linejoin="round"/>
</svg>
